<svg width="125" height="216" viewBox="0 0 125 216" fill="none" xmlns="http://www.w3.org/2000/svg">
<mask id="mask0_15_437" style="mask-type:luminance" maskUnits="userSpaceOnUse" x="74" y="0" width="51" height="114">
<path d="M74.2058 0H124.595V113.529H74.2058V0Z" fill="white"/>
</mask>
<g mask="url(#mask0_15_437)">
<path d="M98.3166 15.7919C98.1518 16.8981 98.1643 18.0461 98.1414 19.1628C97.9579 28.0298 98.0246 26.9464 100.596 28.7464C106.812 33.0987 113.029 37.4468 119.245 41.7989C119.664 42.0927 120.084 42.3907 120.495 42.699C120.876 42.9886 121.126 43.3552 121.066 43.8636C121.022 44.2511 120.814 44.4241 119.985 44.8053C119.228 44.6761 118.68 44.1469 118.08 43.7261C97.47 29.3319 98.9755 30.2757 98.4897 30.1153C97.7953 30.4611 98.1664 37.0592 98.3104 37.3801C98.5897 38.0051 97.8224 37.2634 123.072 57.1891C123.516 57.5412 123.954 57.9141 124.338 58.3308C124.695 58.7183 124.661 59.187 124.353 59.5808C124.062 59.9517 123.593 60.0766 123.126 59.9246C122.619 59.7599 122.259 59.3829 121.858 59.0683C117.688 55.7911 113.521 52.5035 109.355 49.2201C97.9308 40.2135 98.8317 40.8531 98.4083 40.776C98.0371 41.7677 97.9517 44.8928 98.181 49.1513C100.316 51.4139 102.61 53.6243 105.05 55.6827C105.703 56.2328 106.389 56.7495 107.021 57.3244C107.398 57.6661 107.729 58.0682 108.029 58.4828C108.391 58.9892 108.395 59.5496 108.07 60.0891C107.742 60.633 106.954 60.7892 106.624 60.285C105.561 58.66 103.87 57.7412 102.508 56.4578C101.14 55.1702 99.8222 53.8285 98.5147 52.5431C98.1518 52.5973 98.1164 52.8139 98.1164 53.0452C98.1393 72.3021 97.4387 68.4936 100.99 70.8646C106.733 74.6938 112.477 78.5231 118.217 82.3566C118.64 82.64 119.068 82.9357 119.439 83.2816C119.8 83.6191 119.82 84.1483 119.574 84.5379C119.289 84.9941 118.759 85.1859 118.24 84.9358C117.731 84.688 117.25 84.3754 116.777 84.0608C111.125 80.2982 105.48 76.5293 99.8284 72.7666C99.3676 72.4604 98.9422 72.0709 98.3416 71.9229C97.9746 72.3333 98.108 72.8104 98.108 73.2375C98.0913 78.0252 98.0913 82.8149 98.0893 87.6026C98.0642 114.456 98.0413 141.306 98.0184 168.16C98.0163 168.614 98.033 169.072 97.9975 169.526C97.9412 170.242 97.5617 170.673 97.0029 170.714C96.396 170.758 95.9309 170.278 95.8538 169.488C95.8163 169.095 95.833 168.693 95.833 168.295C95.8455 146.403 95.858 124.51 95.8747 102.618C95.8809 93.382 95.8893 84.1462 95.8934 74.9105C95.8934 74.425 95.8517 73.9396 95.8309 73.4708C95.3805 73.4313 95.2282 73.7105 95.0301 73.8959C93.2033 75.6167 91.3807 77.3419 89.5581 79.0669C87.3622 81.1482 85.1747 83.2337 82.9746 85.3067C82.6451 85.6171 82.2927 85.9172 81.9069 86.1484C81.5149 86.3838 80.9497 86.2317 80.6578 85.8963C80.3596 85.5546 80.2929 85.0108 80.5618 84.6254C80.7537 84.3483 81.006 84.1087 81.2521 83.8733C85.2331 80.1127 89.2223 76.3626 93.1949 72.5958C94.1041 71.7333 94.9634 70.8208 95.8413 69.9353C95.8413 64.0664 95.8413 58.262 95.8413 52.4535C95.393 52.4306 95.2803 52.8014 95.0968 53.0535C93.6516 55.0348 92.1252 56.9537 90.5403 58.8266C90.3192 59.0871 90.1066 59.3558 89.875 59.6079C89.5601 59.9496 89.2077 60.2705 88.6989 60.1787C88.1317 60.0766 87.8126 59.7058 87.7146 58.9975C88.3193 57.735 89.4455 56.7411 90.3526 55.589C91.2347 54.4681 92.1648 53.3869 93.0552 52.2722C93.9769 51.1138 94.7861 49.868 95.8142 48.8992C95.9935 46.4596 95.9455 42.6073 95.7286 41.3739C95.3846 41.3739 95.2678 41.6698 95.0906 41.8782C79.44 60.2496 80.0697 58.1704 76.8124 62.7039C76.5789 63.0267 76.3473 63.3559 76.072 63.6414C75.7029 64.0247 75.2337 64.0997 74.825 63.8997C74.3641 63.6747 74.1452 63.158 74.2536 62.5955C74.3329 62.1892 74.5394 61.8559 74.8021 61.5476C80.7099 54.5494 88.455 46.7095 95.8559 37.5051C95.8559 35.2237 95.8559 33.007 95.8559 30.7986C95.4242 30.6111 81.0477 45.8866 80.7454 46.2074C80.3179 46.6637 79.9488 47.1742 79.5484 47.6575C79.3315 47.9179 79.1334 48.2033 78.8748 48.4221C78.4681 48.7638 77.8551 48.7158 77.4651 48.3597C77.0626 47.9909 76.9312 47.4054 77.2586 46.9679C77.8384 46.1928 78.441 45.4282 79.1 44.7199C98.619 23.6984 95.9038 31.3861 95.9038 16.0939C95.4743 15.9148 95.3554 16.2148 95.1969 16.4168C93.5161 18.5773 91.8395 20.7441 90.1566 22.9004C89.9459 23.1671 89.7166 23.4275 89.4601 23.6442C89.0347 24.0026 88.5759 24.0276 88.2026 23.7671C87.7459 23.4483 87.5958 22.9421 87.8877 22.4192C88.1943 21.8754 88.5446 21.3483 88.9304 20.8566C89.8792 19.6461 90.8551 18.4544 91.8311 17.2627C93.2408 15.5418 94.5776 13.7647 95.858 11.8813C95.858 9.41666 95.858 6.91658 95.858 4.42066C95.4576 4.36857 95.3199 4.63525 95.1614 4.86442C93.5349 7.21034 91.7186 9.41041 89.8605 11.575C87.871 13.8959 86.3675 12.3209 88.1588 10.1521C99.7992 -3.95046 93.7705 -1.32745 102.414 5.77488C104.256 7.28743 106.097 8.80414 107.935 10.325C108.285 10.6146 108.606 10.9459 108.894 11.2959C109.069 11.5084 109.196 11.7813 109.267 12.0479C109.361 12.3938 109.263 12.7271 108.965 12.9647C108.679 13.1917 108.341 13.3001 108.014 13.1126C107.621 12.8855 107.242 12.6272 106.895 12.3375C104.663 10.473 102.444 8.59164 100.216 6.71866C99.6554 6.2478 99.0882 5.78529 98.6002 5.38319C98.252 5.41653 98.1893 5.58112 98.1893 5.74362C98.1831 7.96453 98.1852 10.1854 98.1852 12.3917C100.162 14.8085 102.222 17.0815 104.729 18.9211C105.09 19.1857 105.417 19.5253 105.686 19.8837C105.943 20.2232 105.945 20.6421 105.672 20.9982C105.401 21.3524 105.015 21.4879 104.608 21.3191C104.191 21.1483 103.791 20.917 103.415 20.6671C101.979 19.7107 100.802 18.4648 99.6241 17.2231C99.2362 16.8127 98.8609 16.3877 98.3166 15.7919Z" fill="white"/>
</g>
<mask id="mask1_15_437" style="mask-type:luminance" maskUnits="userSpaceOnUse" x="0" y="0" width="42" height="114">
<path d="M0 0.301041H41.1066V113.53H0V0.301041Z" fill="white"/>
</mask>
<g mask="url(#mask1_15_437)">
<path d="M20.5389 10.008C20.2846 13.1707 20.4743 11.2019 25.9234 16.0645C26.2445 16.352 27.1267 16.7374 27.0619 17.2979C26.9243 18.5229 25.5313 17.902 24.9682 17.4562C24.5845 17.1499 20.516 14.7602 20.6558 14.3937C20.5953 14.554 20.6162 33.4171 20.6162 33.5901C31.0763 39.5736 40.4833 49.003 40.7523 49.326C41.5927 50.324 40.3103 51.5261 39.328 50.9469C39.328 50.9469 30.2567 42.1591 21.4044 36.4423C21.2146 36.3193 21.0207 36.186 20.7558 36.261C20.5181 36.6693 20.6349 37.1297 20.637 37.5652C20.6787 43.9508 20.7433 50.3344 20.7684 56.7179C20.7725 57.5263 21.0145 58.2867 21.0708 59.0388C22.6598 61.2514 24.7264 62.9744 26.5552 64.9223C28.7553 67.2662 36.6588 77.0582 37.1301 77.9144C37.7682 79.0749 36.0707 80.4124 35.1156 79.0707C31.6269 74.1643 25.6398 67.0037 21.5233 62.8306C21.4107 62.714 21.2626 62.6327 21.1542 62.5536C21.0603 62.5702 20.9957 62.564 20.9643 62.5932C20.9247 62.6286 20.8955 62.6931 20.8955 62.7452C20.8934 67.0204 20.8934 71.2934 20.8934 75.506C21.542 76.854 21.8945 77.0165 27.7209 83.8938C28.1255 84.3709 28.503 84.8751 28.8533 85.3939C29.0076 85.6189 29.1056 85.9043 29.1495 86.1752C29.2078 86.5335 29.0597 86.8418 28.747 87.0544C28.4321 87.271 28.0775 87.3002 27.7897 87.0794C27.3852 86.7689 26.9973 86.421 26.6699 86.0335C21.4503 79.8583 21.7234 79.8812 21.1291 79.5666C20.81 79.9124 20.8955 77.1624 21.1104 113.559C21.15 120.343 21.1979 127.127 21.2313 133.91C21.2876 144.798 21.3334 155.686 21.3793 166.573C21.3814 167.142 21.3751 167.714 21.3063 168.278C21.2459 168.782 20.8497 169.13 20.4097 169.18C19.9259 169.232 19.367 168.864 19.2669 168.343C19.1835 167.901 19.1793 167.438 19.1751 166.984C19.0021 131.088 19.0459 145.337 18.8456 111.92C18.6517 79.0666 18.7914 80.6146 18.5683 79.6646C17.9677 79.452 14.3684 84.0584 13.7449 84.6126C12.8774 85.3814 10.9776 84.2855 12.7814 82.3334C18.2889 76.3624 18.6642 76.3478 18.6267 74.606C18.5746 72.1559 18.5996 69.7038 18.5913 67.2537C18.585 65.9995 18.5746 64.7453 18.5579 63.4911C18.5537 63.2119 18.5161 62.9348 18.4932 62.6619C18.0803 62.6369 17.9531 62.9182 17.7863 63.1286C16.558 64.6703 3.42651 80.2395 1.58304 78.4479C-0.0456215 76.8624 4.0396 76.4103 18.0261 59.5305C18.17 59.3555 18.3014 59.1701 18.4494 58.9743C18.4494 51.6261 18.4494 44.278 18.4494 36.9569C18.1283 36.8381 17.9635 36.9735 17.8238 37.161C14.2683 41.9633 9.75974 45.7134 5.40551 49.8698C3.67049 51.524 3.87903 52.5095 2.56107 52.1907C-1.83694 51.124 8.47307 45.7884 16.8874 34.9214C18.4348 32.9255 18.4431 32.9213 18.4223 30.4254C18.3097 16.7978 18.3723 17.4375 18.1408 17.1187C17.3484 16.9625 14.5061 23.3919 12.844 21.2584C12.5437 20.875 12.5833 20.375 12.9921 19.8542C19.4025 11.7206 18.2951 13.5582 18.2138 5.91414C16.0241 6.93709 3.10953 24.5565 1.70609 24.8689C0.961607 24.8939 0.623779 24.3918 0.373535 23.7669C0.798949 22.3105 10.9442 10.6518 12.3393 9.10174C20.6579 -0.142318 17.5611 -2.07988 23.7817 4.062C27.6521 7.88295 39.5908 20.9709 39.6721 21.0813C40.0725 21.6146 40.0266 22.2022 39.6096 22.6356C38.6503 23.6272 38.5586 23.4231 24.5407 7.83087C18.6809 1.3119 20.9581 4.83494 20.5389 10.008Z" fill="white"/>
</g>
<mask id="mask2_15_437" style="mask-type:luminance" maskUnits="userSpaceOnUse" x="34" y="42" width="39" height="72">
<path d="M34.1666 42.9694H72.0701V113.53H34.1666V42.9694Z" fill="white"/>
</mask>
<g mask="url(#mask2_15_437)">
<path d="M51.8983 78.5958C51.9484 74.7811 52.0005 71.0227 52.0485 67.2934C51.5355 67.1392 51.3457 67.4767 51.1079 67.6976C49.6149 69.108 48.1301 70.5268 46.637 71.9352C46.3471 72.2061 46.0468 72.4769 45.7173 72.6915C45.2919 72.9685 44.8289 72.881 44.4723 72.5227C44.147 72.1936 44.0407 71.656 44.3055 71.2685C44.562 70.8956 44.8706 70.5519 45.2022 70.2414C46.3242 69.1872 47.4753 68.1643 48.6013 67.1142C49.7274 66.0642 50.8369 64.9975 51.8941 63.9932C52.1256 62.5953 52.3091 53.4388 52.2028 49.3949C52.0339 49.2511 51.8837 49.3406 51.7982 49.472C48.6952 54.3409 44.954 58.7306 41.4257 63.2787C40.9377 63.9099 40.4726 64.5579 39.97 65.1766C39.505 65.7496 38.9545 65.8517 38.4832 65.5016C38.0014 65.1433 37.8326 64.5454 38.1579 63.9807C38.4687 63.4412 38.8627 62.9453 39.2464 62.4516C41.5278 59.5285 43.828 56.6222 46.101 53.695C47.9904 51.2616 49.7691 48.7511 51.3978 46.1344C52.1486 44.9302 52.4843 42.0197 54.2193 43.8134C54.334 43.9301 54.4008 44.101 54.4654 44.2551C55.043 45.6322 55.8918 46.8468 56.7864 48.0302C58.194 49.8949 59.6224 51.747 61.0176 53.6221C62.519 55.6451 64.2666 57.443 66.0454 59.214C67.7866 60.9453 69.4863 62.712 70.8772 64.7474C71.263 65.31 71.703 65.8433 71.8218 66.5392C71.7989 66.8392 71.7176 67.1225 71.4944 67.3143C71.0169 67.733 70.5268 67.7705 70.1118 67.3851C69.824 67.1184 69.5905 66.785 69.3673 66.4579C68.3331 64.9475 67.2215 63.4932 65.889 62.2411C61.9998 58.5931 58.7195 54.4367 55.6374 50.1094C55.3475 49.7053 55.1181 49.2365 54.503 48.8906C54.4758 51.6054 54.4508 54.2033 54.4196 56.8014C54.3883 59.416 54.2881 62.0307 54.5655 64.8392C54.8345 65.3975 55.5039 65.8496 56.1337 66.3329C57.5392 67.4059 58.9677 68.4496 60.3628 69.533C60.9926 70.0226 61.5827 70.5644 62.1583 71.1164C62.4419 71.3873 62.6859 71.7185 62.8881 72.056C63.1488 72.4914 63.0425 72.9727 62.6776 73.2915C62.3376 73.5894 61.9456 73.6394 61.5744 73.402C61.1927 73.1603 60.832 72.8748 60.4984 72.5706C58.7258 70.954 56.8198 69.5018 54.9263 68.033C54.7928 67.9309 54.6593 67.8226 54.4529 67.9142C54.405 67.9767 54.286 68.0559 54.2819 68.1393C54.1505 72.579 54.1109 77.0187 54.1359 81.3043C59.8748 87.3378 65.0215 93.6588 70.1973 99.9549C70.5915 100.434 71.0523 100.88 71.1921 101.607C71.1275 101.759 71.0877 102.007 70.9439 102.161C70.383 102.761 69.8741 102.805 69.3215 102.303C69.0274 102.038 68.7668 101.73 68.5249 101.413C66.352 98.5486 63.9454 95.8798 61.6036 93.1547C59.6308 90.865 57.7519 88.4962 55.8125 86.1774C55.3538 85.6274 54.9409 85.0023 54.2276 84.6502C54.0484 85.8419 53.871 93.6859 53.9754 95.4964C55.8084 98.1465 58 100.544 60.146 102.982C60.5234 103.409 60.9071 103.834 61.2469 104.288C61.4472 104.557 61.6119 104.87 61.7121 105.19C61.8434 105.607 61.689 105.978 61.3304 106.236C61.0239 106.459 60.6819 106.453 60.3586 106.286C59.8936 106.046 59.5453 105.665 59.2137 105.272C57.7102 103.482 56.2088 101.69 54.7031 99.9008C54.4925 99.6507 54.3507 99.3132 53.9733 99.2153C53.7043 99.6695 53.8231 100.128 53.8189 100.559C53.673 113.328 53.5478 126.095 53.3956 138.862C53.2809 148.549 53.1349 158.24 52.9994 167.927C52.9931 168.384 52.9931 168.844 52.9222 169.29C52.8326 169.861 52.378 170.282 51.917 170.309C51.4082 170.338 50.864 169.863 50.7702 169.238C50.7097 168.846 50.7201 168.444 50.7243 168.044C50.7639 164.91 50.8098 161.776 50.8536 158.642C50.9161 154.196 50.987 149.75 51.0412 145.304C51.1956 132.48 51.3394 119.657 51.4958 106.834C51.523 104.497 51.5835 102.161 51.6272 99.8236C51.6335 99.3715 51.6272 98.9194 51.6272 98.4903C51.2206 98.3445 51.0454 98.5965 50.8661 98.807C49.3562 100.59 47.5816 102.14 46.2052 104.043C46.1052 104.18 45.978 104.299 45.855 104.416C45.5422 104.703 45.1751 104.828 44.7539 104.749C43.0773 104.426 44.3868 102.588 45.5192 101.332C46.5097 100.23 47.5545 99.1757 48.5826 98.1069C49.4939 97.1611 50.3739 96.1901 51.1539 95.1318C51.5 94.6631 51.7148 94.1735 51.7169 93.5609C51.7211 89.9712 51.7565 86.3794 51.7753 82.7898C51.7773 82.6814 51.7231 82.5731 51.694 82.4648C51.5167 82.3606 51.3895 82.4418 51.2894 82.5814C48.6661 86.2544 45.636 89.5941 42.681 92.9922C41.3319 94.5422 40.0117 96.1131 38.6813 97.6777C38.2017 98.2424 37.7054 98.7903 37.378 99.4694C37.0964 100.049 36.6314 100.474 36.0475 100.753C35.6012 100.967 35.1341 100.892 34.7943 100.536C34.496 100.226 34.4085 99.8569 34.5273 99.434C34.6732 98.9174 35.0549 98.559 35.3823 98.1715C37.7408 95.3881 40.1119 92.6109 42.4808 89.8358C44.4431 87.5357 46.4159 85.2482 48.3616 82.9335C49.0226 82.1501 49.6253 81.3168 50.2258 80.4855C50.7222 79.7959 51.1268 79.0354 51.8983 78.5958Z" fill="white"/>
</g>
<mask id="mask3_15_437" style="mask-type:luminance" maskUnits="userSpaceOnUse" x="0" y="196" width="125" height="21">
<path d="M124.521 196.406H0V216.007H124.521V196.406Z" fill="white"/>
</mask>
<g mask="url(#mask3_15_437)">
<mask id="mask4_15_437" style="mask-type:luminance" maskUnits="userSpaceOnUse" x="74" y="196" width="51" height="21">
<path d="M74.1621 196.409H124.522V216.009H74.1621V196.409Z" fill="white"/>
</mask>
<g mask="url(#mask4_15_437)">
<path d="M98.2588 129.466C98.0941 130.085 98.1067 130.725 98.0837 131.349C97.9004 136.302 97.9671 135.697 100.537 136.703C106.75 139.134 112.962 141.562 119.175 143.994C119.594 144.158 120.013 144.324 120.424 144.497C120.806 144.659 121.055 144.864 120.994 145.147C120.95 145.364 120.743 145.46 119.915 145.673C119.159 145.601 118.61 145.305 118.01 145.071C97.4126 137.03 98.9174 137.557 98.4318 137.467C97.7377 137.661 98.1087 141.347 98.2526 141.526C98.5319 141.875 97.7649 141.46 123 152.591C123.444 152.788 123.882 152.995 124.264 153.229C124.621 153.445 124.587 153.708 124.279 153.927C123.99 154.135 123.521 154.204 123.054 154.119C122.547 154.027 122.187 153.817 121.786 153.641C117.619 151.81 113.454 149.974 109.29 148.139C97.8733 143.108 98.7736 143.466 98.3505 143.422C97.9796 143.976 97.8941 145.722 98.1233 148.102C100.257 149.365 102.55 150.6 104.989 151.75C105.64 152.057 106.326 152.345 106.958 152.666C107.335 152.858 107.667 153.082 107.965 153.314C108.327 153.596 108.331 153.91 108.007 154.211C107.679 154.515 106.891 154.602 106.562 154.32C105.499 153.413 103.809 152.899 102.448 152.183C101.081 151.463 99.7636 150.713 98.4568 149.996C98.0941 150.026 98.0587 150.147 98.0587 150.276C98.0816 161.033 97.3813 158.905 100.931 160.23C106.67 162.369 112.41 164.508 118.147 166.649C118.571 166.808 118.998 166.973 119.369 167.166C119.73 167.355 119.751 167.65 119.505 167.867C119.219 168.123 118.689 168.23 118.17 168.091C117.663 167.952 117.181 167.777 116.708 167.601C111.06 165.5 105.417 163.395 99.7698 161.292C99.3092 161.121 98.8841 160.904 98.2839 160.822C97.917 161.051 98.0504 161.317 98.0504 161.556C98.0337 164.23 98.0337 166.906 98.0316 169.58C98.0067 184.58 97.9838 199.58 97.9608 214.579C97.9587 214.834 97.9754 215.089 97.94 215.343C97.8837 215.743 97.5044 215.983 96.9458 216.006C96.3393 216.03 95.8745 215.763 95.7974 215.322C95.76 215.102 95.7767 214.877 95.7767 214.656C95.7892 202.426 95.8016 190.196 95.8183 177.968C95.8245 172.809 95.8328 167.649 95.837 162.49C95.837 162.219 95.7953 161.947 95.7746 161.686C95.3244 161.664 95.1722 161.82 94.9742 161.923C93.1485 162.885 91.327 163.848 89.5054 164.812C87.3108 165.974 85.1245 167.14 82.9258 168.298C82.5965 168.471 82.2443 168.639 81.8588 168.768C81.4669 168.899 80.9021 168.815 80.6103 168.627C80.3122 168.436 80.2456 168.132 80.5145 167.917C80.7062 167.762 80.9583 167.628 81.2043 167.497C85.1829 165.397 89.1698 163.301 93.1402 161.198C94.0489 160.715 94.9075 160.206 95.785 159.711C95.785 156.433 95.785 153.19 95.785 149.946C95.3369 149.932 95.2243 150.14 95.0409 150.281C93.5966 151.387 92.071 152.46 90.487 153.506C90.2661 153.651 90.0536 153.801 89.8222 153.942C89.5075 154.134 89.1552 154.313 88.6468 154.261C88.0799 154.204 87.761 153.997 87.663 153.601C88.2674 152.896 89.3929 152.341 90.2995 151.698C91.1811 151.071 92.1106 150.467 93.0005 149.845C93.9217 149.197 94.7304 148.501 95.7579 147.96C95.9371 146.598 95.8891 144.445 95.6724 143.757C95.3285 143.757 95.2118 143.922 95.0347 144.038C79.3932 154.3 80.0226 153.139 76.7672 155.672C76.5337 155.852 76.3024 156.036 76.0273 156.196C75.6584 156.409 75.1895 156.452 74.781 156.339C74.3203 156.214 74.1015 155.925 74.21 155.611C74.2891 155.384 74.4955 155.198 74.7581 155.026C80.6624 151.116 88.4029 146.737 95.7995 141.596C95.7995 140.321 95.7995 139.083 95.7995 137.85C95.3681 137.744 81 146.277 80.6978 146.457C80.2707 146.711 79.9017 146.997 79.5016 147.266C79.2848 147.412 79.0868 147.571 78.8284 147.693C78.4219 147.885 77.8092 147.858 77.4196 147.659C77.0173 147.453 76.8859 147.126 77.2131 146.881C77.7925 146.449 78.3949 146.022 79.0534 145.626C98.561 133.883 95.8474 138.178 95.8474 129.635C95.4182 129.535 95.2993 129.702 95.141 129.815C93.4611 131.022 91.7855 132.233 90.1035 133.437C89.8931 133.586 89.6638 133.732 89.4075 133.853C88.9823 134.053 88.5238 134.067 88.1508 133.921C87.6943 133.742 87.5443 133.46 87.8361 133.168C88.1424 132.864 88.4926 132.571 88.8781 132.296C89.8263 131.62 90.8017 130.953 91.7771 130.288C93.1861 129.327 94.522 128.334 95.8016 127.282C95.8016 125.905 95.8016 124.509 95.8016 123.114C95.4015 123.085 95.2639 123.234 95.1056 123.362C93.4799 124.672 91.6646 125.901 89.8076 127.11C87.8194 128.407 86.3166 127.528 88.107 126.316C99.7406 118.438 93.7154 119.904 102.354 123.87C104.194 124.716 106.035 125.563 107.871 126.413C108.222 126.574 108.542 126.759 108.829 126.955C109.004 127.073 109.132 127.226 109.202 127.375C109.296 127.569 109.198 127.754 108.9 127.887C108.614 128.014 108.278 128.075 107.95 127.97C107.559 127.842 107.179 127.699 106.833 127.536C104.601 126.495 102.383 125.444 100.158 124.398C99.5968 124.135 99.0299 123.877 98.5423 123.652C98.1942 123.67 98.1317 123.762 98.1317 123.854C98.1254 125.094 98.1275 126.334 98.1275 127.568C100.103 128.917 102.162 130.187 104.668 131.215C105.029 131.363 105.355 131.552 105.624 131.752C105.88 131.942 105.882 132.175 105.609 132.375C105.338 132.573 104.954 132.647 104.547 132.554C104.13 132.458 103.73 132.329 103.355 132.189C101.919 131.655 100.743 130.959 99.5656 130.266C99.1779 130.036 98.8028 129.799 98.2588 129.466Z" fill="white"/>
</g>
<mask id="mask5_15_437" style="mask-type:luminance" maskUnits="userSpaceOnUse" x="0" y="196" width="42" height="20">
<path d="M0 196.409H41.0826V215.396H0V196.409Z" fill="white"/>
</mask>
<g mask="url(#mask5_15_437)">
<path d="M20.5271 126.235C20.2729 128.001 20.4625 126.901 25.9084 129.618C26.2294 129.779 27.1109 129.994 27.0464 130.307C26.9088 130.991 25.5167 130.644 24.9539 130.395C24.5704 130.224 20.5042 128.889 20.6439 128.684C20.5834 128.774 20.6043 139.311 20.6043 139.407C31.0583 142.75 40.4599 148.017 40.7287 148.197C41.5687 148.756 40.2869 149.426 39.3053 149.103C39.3053 149.103 30.2393 144.194 21.3921 141.001C21.2024 140.932 21.0086 140.857 20.744 140.9C20.5063 141.128 20.623 141.385 20.6251 141.628C20.6668 145.195 20.7315 148.761 20.7565 152.327C20.7606 152.779 21.0024 153.204 21.0587 153.623C22.6468 154.859 24.7121 155.821 26.5399 156.91C28.7386 158.219 36.6375 163.689 37.1086 164.168C37.7464 164.816 36.0498 165.562 35.0953 164.813C31.6085 162.072 25.625 158.072 21.5109 155.742C21.3984 155.676 21.2504 155.631 21.142 155.586C21.0482 155.596 20.9836 155.593 20.9523 155.609C20.9127 155.629 20.8835 155.664 20.8835 155.694C20.8815 158.082 20.8815 160.469 20.8815 162.822C21.5296 163.575 21.8819 163.666 27.705 167.508C28.1092 167.774 28.4865 168.055 28.8366 168.345C28.9909 168.471 29.0888 168.63 29.1326 168.781C29.191 168.982 29.0429 169.154 28.7303 169.273C28.4156 169.394 28.0613 169.41 27.7737 169.286C27.3694 169.114 26.9818 168.919 26.6546 168.702C21.4379 165.253 21.711 165.267 21.1169 165.091C20.7981 165.283 20.8835 163.747 21.0982 184.079C21.1378 187.868 21.1857 191.658 21.2191 195.446C21.2754 201.528 21.3213 207.61 21.3671 213.692C21.3692 214.009 21.3629 214.33 21.2941 214.645C21.2337 214.926 20.8377 215.121 20.398 215.148C19.9144 215.177 19.3559 214.972 19.2558 214.681C19.1725 214.434 19.1684 214.175 19.1642 213.922C18.9911 193.87 19.0349 201.83 18.8349 183.163C18.641 164.811 18.7807 165.676 18.5577 165.145C17.9574 165.026 14.3602 167.599 13.7371 167.909C12.87 168.339 10.9713 167.726 12.7742 166.635C18.2783 163.3 18.6535 163.292 18.616 162.319C18.5639 160.951 18.5889 159.581 18.5805 158.212C18.5743 157.512 18.5639 156.811 18.5473 156.11C18.5431 155.954 18.5056 155.8 18.4827 155.647C18.07 155.633 17.9428 155.791 17.7761 155.908C16.5486 156.769 3.42471 165.466 1.58234 164.466C-0.0453763 163.579 4.03745 163.327 18.0158 153.898C18.1596 153.8 18.2909 153.697 18.4389 153.587C18.4389 149.483 18.4389 145.378 18.4389 141.289C18.1179 141.222 17.9532 141.298 17.8136 141.402C14.2602 144.085 9.75425 146.18 5.40257 148.501C3.66856 149.425 3.87697 149.976 2.5598 149.798C-1.83565 149.202 8.46834 146.222 16.8779 140.151C18.4243 139.036 18.4326 139.034 18.4118 137.639C18.2992 130.027 18.3617 130.385 18.1304 130.207C17.3384 130.119 14.4977 133.711 12.8367 132.52C12.5366 132.305 12.5761 132.026 12.9847 131.734C19.3913 127.192 18.2846 128.217 18.2034 123.948C16.0151 124.519 3.10792 134.362 1.7053 134.536C0.961264 134.55 0.623632 134.269 0.373535 133.92C0.7987 133.107 10.9381 126.594 12.3323 125.728C20.646 120.565 17.5511 119.482 23.768 122.913C27.6362 125.047 39.5679 132.358 39.6492 132.421C40.0494 132.719 40.0035 133.047 39.5866 133.288C38.6279 133.842 38.5362 133.729 24.5267 125.018C18.6702 121.377 20.9461 123.345 20.5271 126.235Z" fill="white"/>
</g>
<mask id="mask6_15_437" style="mask-type:luminance" maskUnits="userSpaceOnUse" x="34" y="196" width="39" height="20">
<path d="M34.1461 196.409H72.0275V215.992H34.1461V196.409Z" fill="white"/>
</mask>
<g mask="url(#mask6_15_437)">
<path d="M51.8676 164.548C51.9177 162.417 51.9698 160.318 52.0177 158.235C51.5051 158.148 51.3153 158.337 51.0778 158.461C49.5856 159.248 48.1016 160.041 46.6094 160.827C46.3197 160.979 46.0196 161.13 45.6903 161.25C45.2651 161.405 44.8024 161.356 44.446 161.156C44.1209 160.972 44.0146 160.672 44.2793 160.455C44.5357 160.247 44.8441 160.054 45.1755 159.881C46.2968 159.293 47.4472 158.721 48.5727 158.135C49.698 157.547 50.8069 156.952 51.8634 156.391C52.0949 155.61 52.2782 150.495 52.1719 148.236C52.0031 148.156 51.853 148.206 51.7676 148.28C48.6665 150.999 44.9274 153.451 41.4011 155.992C40.9134 156.345 40.4486 156.706 39.9464 157.052C39.4817 157.372 38.9314 157.429 38.4604 157.234C37.9789 157.033 37.8101 156.7 38.1353 156.384C38.4458 156.082 38.8397 155.806 39.2231 155.53C41.5032 153.897 43.802 152.274 46.0738 150.639C47.962 149.279 49.7397 147.877 51.3675 146.414C52.1178 145.741 52.4533 144.116 54.1873 145.119C54.302 145.183 54.3686 145.279 54.4332 145.365C55.0105 146.134 55.8588 146.813 56.7529 147.474C58.1597 148.516 59.5873 149.55 60.9816 150.598C62.4822 151.728 64.2287 152.732 66.0065 153.721C67.7467 154.689 69.4453 155.675 70.8354 156.812C71.221 157.127 71.6608 157.425 71.7795 157.813C71.7567 157.981 71.6753 158.139 71.4523 158.246C70.975 158.481 70.4853 158.501 70.0705 158.286C69.7829 158.137 69.5495 157.95 69.3265 157.768C68.2927 156.924 67.1819 156.111 65.8501 155.412C61.9632 153.374 58.6849 151.053 55.6046 148.636C55.3148 148.41 55.0855 148.147 54.4707 147.955C54.4436 149.471 54.4186 150.923 54.3873 152.374C54.3562 153.834 54.2561 155.295 54.5333 156.863C54.8021 157.176 55.4711 157.428 56.1005 157.698C57.5053 158.297 58.9329 158.88 60.3272 159.486C60.9566 159.759 61.5464 160.061 62.1216 160.37C62.4051 160.522 62.6489 160.706 62.8511 160.895C63.1116 161.138 63.0053 161.407 62.6405 161.585C62.3008 161.752 61.9091 161.78 61.5381 161.646C61.1567 161.512 60.7961 161.352 60.4626 161.182C58.6912 160.279 56.7862 159.467 54.8938 158.647C54.7604 158.591 54.6271 158.531 54.4207 158.582C54.3727 158.616 54.254 158.661 54.2498 158.707C54.1185 161.187 54.0789 163.667 54.1039 166.061C59.8395 169.431 64.9832 172.963 70.156 176.479C70.5498 176.747 71.0105 176.996 71.1501 177.402C71.0856 177.487 71.0459 177.625 70.9021 177.712C70.3415 178.046 69.833 178.071 69.2806 177.791C68.9868 177.643 68.7262 177.471 68.4845 177.294C66.3129 175.693 63.9077 174.202 61.5673 172.681C59.5957 171.402 57.7178 170.078 55.7796 168.783C55.321 168.476 54.9084 168.126 54.1956 167.931C54.0164 168.596 53.8392 172.977 53.9435 173.989C55.7754 175.469 57.9658 176.809 60.1104 178.17C60.4876 178.408 60.8711 178.646 61.2109 178.9C61.4109 179.05 61.5756 179.225 61.6756 179.403C61.8069 179.636 61.6526 179.844 61.2943 179.988C60.9879 180.111 60.6461 180.109 60.323 180.016C59.8582 179.882 59.5102 179.67 59.1788 179.449C57.6762 178.45 56.1756 177.449 54.6709 176.449C54.4603 176.309 54.3186 176.12 53.9414 176.066C53.6726 176.32 53.7913 176.575 53.7871 176.817C53.6413 183.95 53.5162 191.082 53.3641 198.213C53.2494 203.625 53.1035 209.038 52.9681 214.449C52.9618 214.705 52.9618 214.962 52.891 215.211C52.8013 215.529 52.347 215.765 51.8864 215.779C51.3779 215.796 50.834 215.529 50.7401 215.181C50.6797 214.963 50.6901 214.738 50.6943 214.515C50.7339 212.764 50.7798 211.013 50.8235 209.262C50.886 206.779 50.9569 204.295 51.0111 201.812C51.1653 194.649 51.3091 187.486 51.4655 180.323C51.4926 179.017 51.5529 177.712 51.5967 176.406C51.6029 176.154 51.5967 175.901 51.5967 175.661C51.1904 175.58 51.0152 175.72 50.836 175.838C49.327 176.834 47.5535 177.7 46.1779 178.762C46.0779 178.84 45.9508 178.906 45.8278 178.971C45.5151 179.131 45.1484 179.201 44.7274 179.157C43.0517 178.977 44.3606 177.95 45.4923 177.248C46.4822 176.633 47.5264 176.044 48.5539 175.447C49.4646 174.919 50.3441 174.376 51.1236 173.785C51.4696 173.523 51.6843 173.25 51.6863 172.908C51.6905 170.903 51.726 168.896 51.7447 166.891C51.7468 166.831 51.6926 166.769 51.6634 166.708C51.4863 166.651 51.3591 166.696 51.2591 166.775C48.6373 168.826 45.609 170.691 42.6558 172.59C41.3073 173.454 39.9881 174.333 38.6584 175.207C38.1791 175.523 37.683 175.829 37.3558 176.208C37.0744 176.532 36.6097 176.769 36.0261 176.925C35.5801 177.045 35.1132 177.004 34.7735 176.804C34.4755 176.631 34.388 176.424 34.5067 176.188C34.6527 175.9 35.0341 175.7 35.3613 175.483C37.7184 173.927 40.0881 172.376 42.4557 170.827C44.4169 169.542 46.3885 168.264 48.333 166.971C48.9936 166.534 49.596 166.068 50.1962 165.604C50.6922 165.219 51.0965 164.794 51.8676 164.548Z" fill="white"/>
</g>
</g>
<path d="M16.2454 165.464C16.5231 165.464 16.8779 165.34 17.3099 165.094C17.4642 165.094 17.5413 165.156 17.5413 165.279C17.5413 165.372 17.4951 165.449 17.4025 165.51C17.3408 165.572 17.0631 165.68 16.5694 165.834C16.0757 165.988 15.6746 166.065 15.366 166.065C14.3479 166.065 13.8388 165.741 13.8388 165.094C13.8388 164.848 13.9005 164.585 14.0239 164.308C14.1782 164.03 14.2553 163.846 14.2553 163.753C14.2553 163.661 14.2245 163.615 14.1628 163.615C13.5457 163.83 12.6509 164.37 11.4783 165.233L8.19241 169.348C7.94557 169.656 7.71416 169.81 7.49817 169.81C7.25134 169.81 7.12793 169.733 7.12793 169.579C7.12793 169.425 7.23591 169.178 7.4519 168.84L10.3676 165.186C10.5836 164.909 10.9848 164.385 11.5709 163.615C12.1572 162.844 12.4966 162.382 12.5891 162.228C12.7126 162.073 12.9286 161.996 13.2371 161.996C13.5765 161.996 13.7462 162.058 13.7462 162.181C13.7462 162.305 13.7154 162.396 13.6537 162.459L13.0057 163.384C12.9131 163.506 12.8051 163.629 12.6817 163.753C12.9594 163.692 14.0702 163.137 16.014 162.088C16.0757 162.058 16.1837 162.042 16.338 162.042C16.4923 162.042 16.5694 162.088 16.5694 162.181C16.5694 162.242 16.5385 162.319 16.4768 162.412C16.446 162.473 16.2917 162.674 16.014 163.013C15.4586 163.692 15.1809 164.2 15.1809 164.54C15.1809 165.156 15.5357 165.464 16.2454 165.464ZM18.797 167.174V167.498C22.2527 166.173 23.9806 164.848 23.9806 163.522C23.9806 162.844 23.5487 162.505 22.6847 162.505C21.8516 162.505 20.9878 163.028 20.093 164.077C19.229 165.125 18.797 166.158 18.797 167.174ZM25.1377 163.152C25.1377 165.002 23.0704 166.605 18.9359 167.961C19.1827 168.67 19.8615 169.024 20.9723 169.024C22.8544 169.024 24.644 168.253 26.341 166.712C26.4335 166.589 26.5261 166.528 26.6187 166.528C26.7421 166.528 26.8038 166.635 26.8038 166.852C26.8038 167.036 26.5261 167.36 25.9707 167.822C25.4154 168.285 24.6286 168.731 23.6104 169.162C22.5921 169.595 21.5894 169.81 20.6021 169.81C18.5039 169.81 17.4549 169.04 17.4549 167.498C17.4549 166.235 18.0875 164.955 19.3524 163.661C20.6484 162.366 22.0367 161.718 23.5178 161.718C24.5977 161.718 25.1377 162.196 25.1377 163.152ZM33.5389 157.742C35.2667 155.615 37.0255 153.488 38.815 151.361C40.6046 149.203 41.5456 148.063 41.6382 147.939C41.7616 147.816 41.9776 147.755 42.2861 147.755C42.6256 147.755 42.7953 147.847 42.7953 148.032V148.17C42.7953 148.356 42.7181 148.494 42.5638 148.587C41.2063 149.881 38.383 153.18 34.0942 158.482C29.8055 163.783 27.6611 166.82 27.6611 167.591C27.6611 168.33 28.0314 168.7 28.7719 168.7C29.0187 168.7 29.4198 168.623 29.9752 168.469C30.9625 168.069 31.6876 167.652 32.1504 167.221C32.6133 166.759 32.891 166.528 32.9835 166.528C33.107 166.528 33.1687 166.62 33.1687 166.805C33.1687 166.99 32.891 167.329 32.3356 167.822C31.7802 168.285 31.0859 168.7 30.2529 169.071C29.4198 169.441 28.6639 169.625 27.9851 169.625C26.9668 169.625 26.4578 169.148 26.4578 168.192C26.4578 167.607 27.2137 166.25 28.7256 164.123C30.2375 161.965 31.8419 159.839 33.5389 157.742ZM36.0479 169.024C37.2512 169.024 38.5934 168.407 40.0744 167.174C41.5554 165.911 42.4194 164.832 42.6662 163.938C42.6662 163.568 42.4348 163.26 41.972 163.013C41.5091 162.736 40.9846 162.597 40.3983 162.597C38.9791 162.597 37.6677 163.214 36.4644 164.447C35.292 165.649 34.7057 166.712 34.7057 167.637C34.7057 168.562 35.1531 169.024 36.0479 169.024ZM40.8149 161.857C41.8948 161.857 42.7896 162.242 43.4993 163.013C43.5301 163.013 43.7769 162.782 44.2397 162.319C44.4557 161.981 44.7026 161.811 44.9803 161.811C45.258 161.811 45.3968 161.949 45.3968 162.228L45.2117 162.643C45.1191 162.797 44.502 163.552 43.3605 164.909C42.2497 166.265 41.6017 167.067 41.4166 167.313C41.2623 167.56 41.1851 167.929 41.1851 168.423C41.1851 168.763 41.4011 168.931 41.8331 168.931C42.7279 168.931 43.9929 168.192 45.6282 166.712C45.7208 166.589 45.8134 166.528 45.9059 166.528C46.0293 166.528 46.0911 166.605 46.0911 166.759C46.0911 167.129 45.4585 167.714 44.1935 168.516C42.9593 169.317 41.8485 169.718 40.8612 169.718C40.1823 169.718 39.843 169.363 39.843 168.654C39.843 168.407 39.7968 168.285 39.7042 168.285C39.6425 168.285 39.5962 168.3 39.5653 168.33C38.0226 169.348 36.5569 169.856 35.1685 169.856C33.8109 169.856 33.1321 169.24 33.1321 168.006C33.1321 166.712 33.9035 165.372 35.4462 163.984C36.9889 162.566 38.7785 161.857 40.8149 161.857ZM49.8269 166.204C53.5911 163.522 55.7046 162.181 56.1674 162.181C56.4143 162.181 56.5377 162.242 56.5377 162.366C56.5377 162.428 56.2754 162.613 55.7509 162.921C55.2263 163.198 53.2363 164.54 49.7806 166.943C49.7806 168.3 50.3977 168.978 51.6318 168.978C52.5266 168.978 53.8071 168.223 55.4732 166.712C55.5658 166.589 55.6583 166.528 55.7509 166.528C55.8743 166.528 55.936 166.605 55.936 166.759C55.936 167.129 55.3035 167.714 54.0385 168.516C52.8043 169.317 51.6935 169.718 50.7062 169.718C49.256 169.718 48.5309 169.085 48.5309 167.822L44.8284 170.411C44.5198 170.411 44.3655 170.35 44.3655 170.227C44.3655 170.103 44.4581 169.98 44.6432 169.856L48.5772 167.083C48.8549 165.572 49.5029 164 50.5211 162.366C50.8914 161.78 51.1227 161.457 51.2152 161.394C51.3078 161.24 51.4467 161.163 51.6318 161.163C51.8478 161.163 51.9558 161.256 51.9558 161.441C51.9558 161.626 51.9095 161.765 51.8169 161.857C50.7062 162.967 50.0428 164.416 49.8269 166.204ZM59.6885 177.717C58.8246 178.056 58.1303 178.487 57.6058 179.011C57.0505 179.566 56.7728 179.967 56.7728 180.214C56.7728 180.491 56.8653 180.63 57.0505 180.63C57.6983 180.63 58.2846 180.337 58.8091 179.752C59.3028 179.165 59.5959 178.487 59.6885 177.717ZM55.4306 173.879C52.9005 173.879 50.4629 174.604 48.118 176.053C45.7731 177.532 44.6006 179.135 44.6006 180.861C44.6006 181.847 45.156 182.341 46.2668 182.341C48.5191 182.341 52.16 179.582 57.1892 174.065C56.7265 173.941 56.1402 173.879 55.4306 173.879ZM72.5085 162.782C72.5085 163.583 71.8451 164.647 70.5185 165.973C69.2225 167.298 68.5746 168.13 68.5746 168.469C68.5746 168.777 68.7905 168.931 69.2225 168.931C70.1173 168.931 71.3824 168.192 73.0176 166.712C73.1102 166.589 73.2028 166.528 73.2953 166.528C73.4188 166.528 73.4805 166.605 73.4805 166.759C73.4805 167.129 72.8479 167.714 71.5829 168.516C70.3488 169.317 69.238 169.718 68.2506 169.718C67.5719 169.718 67.2325 169.363 67.2325 168.654C67.2325 168.099 67.9112 167.159 69.2688 165.834C70.6573 164.508 71.3515 163.615 71.3515 163.152C71.3515 162.69 71.0738 162.459 70.5185 162.459C69.5619 162.428 68.6208 162.674 67.6953 163.198L67.2787 163.429C67.0319 163.706 65.8748 165.109 63.8076 167.637C61.7711 170.164 60.0125 172.261 58.5314 173.926C59.8274 174.541 60.4753 175.543 60.4753 176.931V177.023C61.3392 176.808 62.1877 176.699 63.0208 176.699C63.8539 176.699 64.5789 176.869 65.196 177.209C65.8131 177.578 66.1217 178.025 66.1217 178.549C66.1217 178.642 66.0754 178.766 65.9828 178.92C65.9211 179.074 65.7977 179.151 65.6125 179.151C65.4274 179.151 65.2731 179.027 65.1497 178.78C65.0571 178.534 64.9183 178.303 64.7332 178.087C64.2395 177.501 63.5608 177.209 62.6968 177.209C61.8329 177.209 61.0923 177.301 60.4753 177.486C60.321 178.534 59.8428 179.444 59.0405 180.214C58.2074 181.015 57.2355 181.416 56.1248 181.416C55.662 181.416 55.4306 181.232 55.4306 180.861C55.4306 180.368 55.8471 179.736 56.6802 178.966C57.4823 178.226 58.4851 177.64 59.6885 177.209C59.6885 175.914 59.1485 174.989 58.0686 174.434C52.8234 180.137 48.8123 182.989 46.0354 182.989C44.2458 182.989 43.351 182.402 43.351 181.232C43.351 179.258 44.7395 177.44 47.5163 175.775C50.2624 174.142 52.8851 173.324 55.3843 173.324C56.2482 173.324 57.0042 173.417 57.652 173.602C60.2131 170.735 63.1134 167.236 66.3531 163.105C69.6236 158.975 71.4286 156.694 71.768 156.262C72.1074 155.831 72.416 155.615 72.6937 155.615C72.9714 155.615 73.1102 155.754 73.1102 156.031C73.1102 156.185 73.0331 156.371 72.8788 156.586C69.7625 160.315 68.2043 162.228 68.2043 162.319C68.3277 162.196 68.7443 162.042 69.4539 161.857C70.1636 161.672 70.7036 161.58 71.0738 161.58C72.0303 161.58 72.5085 161.981 72.5085 162.782ZM76.4504 169.024C77.6538 169.024 78.996 168.407 80.4769 167.174C81.958 165.911 82.822 164.832 83.0688 163.938C83.0688 163.568 82.8374 163.26 82.3745 163.013C81.9117 162.736 81.3872 162.597 80.8009 162.597C79.3817 162.597 78.0703 163.214 76.867 164.447C75.6946 165.649 75.1083 166.712 75.1083 167.637C75.1083 168.562 75.5557 169.024 76.4504 169.024ZM81.2175 161.857C82.2974 161.857 83.1922 162.242 83.9018 163.013C83.9326 163.013 84.1795 162.782 84.6423 162.319C84.8583 161.981 85.1051 161.811 85.3828 161.811C85.6605 161.811 85.7994 161.949 85.7994 162.228L85.6143 162.643C85.5217 162.797 84.9046 163.552 83.7629 164.909C82.6522 166.265 82.0043 167.067 81.8191 167.313C81.6649 167.56 81.5877 167.929 81.5877 168.423C81.5877 168.763 81.8037 168.931 82.2357 168.931C83.1305 168.931 84.3955 168.192 86.0308 166.712C86.1234 166.589 86.2159 166.528 86.3085 166.528C86.4319 166.528 86.4936 166.605 86.4936 166.759C86.4936 167.129 85.8611 167.714 84.596 168.516C83.3618 169.317 82.2511 169.718 81.2637 169.718C80.5849 169.718 80.2455 169.363 80.2455 168.654C80.2455 168.407 80.1992 168.285 80.1067 168.285C80.045 168.285 79.9987 168.3 79.9678 168.33C78.4252 169.348 76.9595 169.856 75.5711 169.856C74.2135 169.856 73.5347 169.24 73.5347 168.006C73.5347 166.712 74.3061 165.372 75.8488 163.984C77.3915 162.566 79.1811 161.857 81.2175 161.857ZM93.932 165.464C94.2097 165.464 94.5644 165.34 94.9964 165.094C95.1507 165.094 95.2278 165.156 95.2278 165.279C95.2278 165.372 95.1815 165.449 95.089 165.51C95.0273 165.572 94.7496 165.68 94.256 165.834C93.7623 165.988 93.3612 166.065 93.0526 166.065C92.0344 166.065 91.5253 165.741 91.5253 165.094C91.5253 164.848 91.587 164.585 91.7104 164.308C91.8647 164.03 91.9418 163.846 91.9418 163.753C91.9418 163.661 91.911 163.615 91.8493 163.615C91.2321 163.83 90.3374 164.37 89.1649 165.233L85.8789 169.348C85.6321 169.656 85.4007 169.81 85.1847 169.81C84.9378 169.81 84.8144 169.733 84.8144 169.579C84.8144 169.425 84.9224 169.178 85.1384 168.84L88.0541 165.186C88.2701 164.909 88.6712 164.385 89.2575 163.615C89.8438 162.844 90.1832 162.382 90.2757 162.228C90.3991 162.073 90.6151 161.996 90.9236 161.996C91.263 161.996 91.4327 162.058 91.4327 162.181C91.4327 162.305 91.4018 162.396 91.3401 162.459L90.6923 163.384C90.5997 163.506 90.4917 163.629 90.3683 163.753C90.646 163.692 91.7567 163.137 93.7006 162.088C93.7623 162.058 93.8703 162.042 94.0246 162.042C94.1788 162.042 94.256 162.088 94.256 162.181C94.256 162.242 94.2251 162.319 94.1634 162.412C94.1326 162.473 93.9783 162.674 93.7006 163.013C93.1452 163.692 92.8675 164.2 92.8675 164.54C92.8675 165.156 93.2223 165.464 93.932 165.464ZM102.621 169.024C104.503 169.024 106.293 168.253 107.99 166.712C108.082 166.589 108.174 166.528 108.267 166.528C108.39 166.528 108.453 166.635 108.453 166.852C108.453 167.036 108.174 167.36 107.619 167.822C107.064 168.285 106.277 168.731 105.259 169.162C104.241 169.595 103.423 169.81 102.806 169.81C102.219 169.81 101.788 169.764 101.51 169.672C101.232 169.61 100.924 169.425 100.584 169.117C100.276 168.777 100.121 168.285 100.121 167.637C100.121 166.959 100.368 166.389 100.862 165.927C101.356 165.464 101.911 165.171 102.528 165.048C104.102 164.771 104.889 164.231 104.889 163.429C104.889 162.874 104.534 162.597 103.824 162.597C102.898 162.597 101.356 163.137 99.1958 164.216C97.6222 166.219 96.5423 167.607 95.956 168.377C95.3698 169.148 94.907 169.533 94.5677 169.533C94.2282 169.502 94.0585 169.379 94.0585 169.162C94.0585 168.947 94.1511 168.747 94.3362 168.562C96.5269 165.787 99.2266 162.489 102.435 158.667C105.644 154.814 107.974 151.978 109.424 150.159C109.702 149.881 109.841 149.681 109.841 149.557C109.841 149.435 109.81 149.373 109.748 149.373C109.687 149.373 109.563 149.435 109.378 149.557C109.224 149.65 108.746 149.82 107.943 150.067C107.141 150.314 106.323 150.436 105.49 150.436C104.657 150.436 104.241 150.251 104.241 149.881C104.241 149.789 104.272 149.712 104.333 149.65C104.426 149.557 104.487 149.512 104.519 149.512C104.58 149.512 104.766 149.589 105.074 149.743C105.413 149.866 105.783 149.928 106.184 149.928C106.617 149.928 107.419 149.712 108.591 149.28C109.794 148.849 110.983 148.156 112.155 147.2C112.464 146.953 112.695 146.83 112.85 146.83C113.158 146.83 113.312 146.953 113.312 147.2L113.081 147.662C112.957 147.785 111.106 149.958 107.527 154.181C103.978 158.374 101.433 161.426 99.89 163.337C102.05 162.228 103.685 161.672 104.796 161.672C105.937 161.672 106.509 162.181 106.509 163.198C106.509 163.783 106.231 164.246 105.676 164.585C105.151 164.925 104.565 165.156 103.917 165.279C103.299 165.372 102.713 165.618 102.158 166.018C101.633 166.389 101.371 166.913 101.371 167.591C101.371 168.546 101.788 169.024 102.621 169.024Z" fill="white"/>
<path d="M30.1971 187.692C30.1971 187.985 30.4584 188.201 30.9807 188.337C31.1278 188.373 31.2241 188.399 31.2698 188.413C31.3154 188.424 31.4043 188.452 31.5361 188.498C31.673 188.538 31.7668 188.574 31.8176 188.604C31.8733 188.634 31.9494 188.682 32.0458 188.748C32.1421 188.809 32.2106 188.873 32.2512 188.938C32.2918 188.999 32.3298 189.08 32.3653 189.181C32.4008 189.278 32.4185 189.382 32.4185 189.493C32.4185 189.817 32.2892 190.081 32.0305 190.284C31.782 190.486 31.4524 190.588 31.0416 190.588C30.6866 190.588 30.3798 190.509 30.121 190.351C29.8624 190.19 29.6799 189.977 29.5734 189.713L29.9994 189.462C30.0704 189.66 30.1971 189.817 30.3798 189.934C30.5674 190.045 30.788 190.101 31.0416 190.101C31.3002 190.101 31.5107 190.05 31.673 189.949C31.8353 189.847 31.9164 189.695 31.9164 189.493C31.9164 189.199 31.6553 188.984 31.1329 188.847C30.9858 188.811 30.8894 188.788 30.8438 188.779C30.7982 188.763 30.7069 188.735 30.5699 188.695C30.438 188.65 30.3442 188.611 30.2885 188.581C30.2377 188.551 30.1642 188.505 30.0679 188.445C29.9715 188.378 29.903 188.315 29.8624 188.254C29.8219 188.188 29.7838 188.107 29.7484 188.011C29.7128 187.909 29.6951 187.803 29.6951 187.692C29.6951 187.382 29.8168 187.124 30.0603 186.917C30.3138 186.709 30.6257 186.604 30.9959 186.604C31.3002 186.604 31.5691 186.673 31.8024 186.811C32.0407 186.947 32.2157 187.137 32.3272 187.38L31.9088 187.623C31.7668 187.269 31.4625 187.092 30.9959 187.092C30.7678 187.092 30.5775 187.145 30.4254 187.251C30.2732 187.357 30.1971 187.504 30.1971 187.692ZM36.1174 185.525C36.1174 185.626 36.0819 185.713 36.0109 185.784C35.9399 185.855 35.8537 185.89 35.7523 185.89C35.6508 185.89 35.5646 185.855 35.4935 185.784C35.4226 185.713 35.3871 185.626 35.3871 185.525C35.3871 185.424 35.4226 185.338 35.4935 185.267C35.5646 185.196 35.6508 185.161 35.7523 185.161C35.8537 185.161 35.9399 185.196 36.0109 185.267C36.0819 185.338 36.1174 185.424 36.1174 185.525ZM36.0033 190.496H35.5012V186.696H36.0033V190.496ZM41.1311 186.604C41.5875 186.604 41.9501 186.747 42.2189 187.03C42.4877 187.309 42.6221 187.686 42.6221 188.163V190.496H42.1201V188.163C42.1201 187.824 42.0287 187.56 41.8462 187.373C41.6687 187.185 41.4151 187.092 41.0855 187.092C40.7051 187.092 40.4033 187.21 40.1801 187.449C39.9621 187.686 39.853 188.038 39.853 188.505V190.496H39.351V186.696H39.853V187.289C40.1371 186.832 40.563 186.604 41.1311 186.604ZM47.6477 190.588C47.0746 190.588 46.5979 190.397 46.2175 190.017C45.8371 189.628 45.647 189.154 45.647 188.597C45.647 188.033 45.8371 187.562 46.2175 187.182C46.5979 186.797 47.0746 186.604 47.6477 186.604C48.023 186.604 48.3603 186.696 48.6594 186.878C48.9587 187.055 49.1768 187.297 49.3138 187.601L48.9029 187.836C48.8015 187.608 48.6367 187.428 48.4084 187.297C48.1852 187.159 47.9317 187.092 47.6477 187.092C47.2267 187.092 46.8717 187.239 46.5826 187.532C46.2936 187.821 46.1491 188.176 46.1491 188.597C46.1491 189.011 46.2936 189.368 46.5826 189.668C46.8717 189.957 47.2267 190.101 47.6477 190.101C47.9266 190.101 48.1776 190.035 48.4008 189.904C48.6291 189.771 48.8065 189.589 48.9334 189.356L49.3518 189.6C49.1945 189.904 48.9638 190.144 48.6594 190.321C48.3552 190.498 48.0179 190.588 47.6477 190.588ZM54.075 186.604C54.643 186.604 55.097 186.805 55.4367 187.205C55.7866 187.601 55.9616 188.07 55.9616 188.611C55.9616 188.636 55.9565 188.715 55.9464 188.847H52.6067C52.6575 189.227 52.8198 189.531 53.0936 189.759C53.3675 189.987 53.7098 190.101 54.1206 190.101C54.6988 190.101 55.1071 189.886 55.3455 189.455L55.7866 189.713C55.6193 189.987 55.3885 190.203 55.0944 190.36C54.8053 190.512 54.4782 190.588 54.113 190.588C53.5146 190.588 53.0277 190.4 52.6524 190.025C52.2771 189.65 52.0895 189.174 52.0895 188.597C52.0895 188.024 52.2746 187.55 52.6448 187.175C53.0151 186.795 53.4917 186.604 54.075 186.604ZM54.075 187.092C53.6794 187.092 53.3473 187.207 53.0784 187.441C52.8147 187.674 52.6575 187.98 52.6067 188.36H55.4443C55.3885 187.955 55.2338 187.644 54.9803 187.426C54.7166 187.203 54.4148 187.092 54.075 187.092ZM66.3836 190.496H62.9984V190.017L64.9155 188.087C65.4631 187.54 65.737 187.071 65.737 186.68C65.737 186.351 65.633 186.091 65.4251 185.898C65.2222 185.7 64.9686 185.601 64.6643 185.601C64.1217 185.601 63.7236 185.852 63.47 186.354L63.0212 186.088C63.1835 185.764 63.4092 185.515 63.6982 185.343C63.9873 185.171 64.3094 185.085 64.6643 185.085C65.0904 185.085 65.4631 185.23 65.7826 185.518C66.1072 185.796 66.2695 186.185 66.2695 186.68C66.2695 186.975 66.1883 187.264 66.026 187.547C65.8638 187.826 65.6153 188.132 65.2806 188.466L63.7591 189.98H66.3836V190.496ZM72.7786 189.842C72.4286 190.339 71.9342 190.588 71.2951 190.588C70.6612 190.588 70.1642 190.339 69.8041 189.842C69.4541 189.341 69.2792 188.673 69.2792 187.836C69.2792 186.995 69.4541 186.328 69.8041 185.837C70.1642 185.336 70.6612 185.085 71.2951 185.085C71.9342 185.085 72.4286 185.336 72.7786 185.837C73.1336 186.328 73.3111 186.995 73.3111 187.836C73.3111 188.677 73.1336 189.346 72.7786 189.842ZM70.1996 189.485C70.4685 189.876 70.8336 190.07 71.2951 190.07C71.7617 190.07 72.1244 189.876 72.383 189.485C72.6467 189.101 72.7786 188.551 72.7786 187.836C72.7786 187.122 72.6467 186.572 72.383 186.187C72.1244 185.796 71.7617 185.601 71.2951 185.601C70.8336 185.601 70.4685 185.796 70.1996 186.187C69.941 186.577 69.8117 187.127 69.8117 187.836C69.8117 188.546 69.941 189.095 70.1996 189.485ZM79.5881 190.496H76.2028V190.017L78.1199 188.087C78.6676 187.54 78.9414 187.071 78.9414 186.68C78.9414 186.351 78.8375 186.091 78.6295 185.898C78.4267 185.7 78.1732 185.601 77.8688 185.601C77.3262 185.601 76.928 185.852 76.6745 186.354L76.2256 186.088C76.3879 185.764 76.6136 185.515 76.9027 185.343C77.1917 185.171 77.5138 185.085 77.8688 185.085C78.2948 185.085 78.6676 185.23 78.9871 185.518C79.3117 185.796 79.474 186.185 79.474 186.68C79.474 186.975 79.3928 187.264 79.2306 187.547C79.0683 187.826 78.8198 188.132 78.4851 188.466L76.9636 189.98H79.5881V190.496ZM85.5665 188.931H86.2511V189.432H85.5665V190.496H85.0339V189.432H82.2192V188.931L84.1971 185.176H84.7829L82.8049 188.931H85.0339V187.304H85.5665V188.931Z" fill="white"/>
<path d="M9.06727 124.624C9.06727 130.19 21.9171 131.098 21.9171 138.206C21.9171 142.338 17.5327 144.267 14.2789 144.267C11.4386 144.267 9.20514 143.247 7.88156 142.338C7.77126 142.256 7.66096 142.228 7.57824 142.228C7.30249 142.228 7.05432 142.504 7.05432 143.165H6.80615V136.057H7.05432C7.05432 139.694 7.82641 141.319 9.28787 142.504C10.4459 143.44 11.9902 144.019 14.2789 144.019C15.6852 144.019 19.4904 143.495 19.4904 138.977C19.4904 133.137 6.80615 131.704 6.80615 125.699C6.80615 121.539 11.1354 120.41 14.0307 120.41C16.1815 120.41 18.3875 121.319 19.8489 122.31C19.9592 122.392 20.0971 122.448 20.2349 122.448C20.4831 122.448 20.6762 122.228 20.6762 121.567H20.9244V128.591H20.6762V128.481C20.6762 124.872 19.8214 123.054 18.2497 121.897C17.2018 121.098 15.7404 120.657 14.0307 120.657C12.6244 120.657 9.06727 121.291 9.06727 124.624ZM45.2562 120.41V120.629C44.2635 120.629 43.4362 121.622 43.4362 123.881V140.796C43.4362 143.055 44.2635 144.019 45.2562 144.019V144.267H39.2449V144.019C40.2376 144.019 41.0649 143.055 41.0649 140.796V130.547C30.6967 130.685 30.0074 135.533 30.0074 136.195V140.796C30.0074 143.055 30.8071 144.019 31.7998 144.019V144.267H25.7885V144.019C26.8087 144.019 27.6083 143.055 27.6083 140.796V123.881C27.6083 121.622 26.8087 120.629 25.7885 120.629V120.41H31.7998V120.629C30.8071 120.629 30.0074 121.622 30.0074 123.881V135.175C30.6416 133.11 33.2888 130.409 41.0649 130.327V123.881C41.0649 121.622 40.2376 120.629 39.2449 120.629V120.41H45.2562ZM64.7135 139.225H64.9617V144.267H49.1062V144.019C50.1266 144.019 50.9262 143.055 50.9262 140.796V123.881C50.9262 121.622 50.1266 120.629 49.1062 120.629V120.41H64.7686V125.451H64.548C64.548 122.806 62.3972 120.629 59.7225 120.629H55.1175C54.1248 120.629 53.3252 121.622 53.3252 123.881V132.916C53.7112 132.007 54.6764 130.989 56.7169 130.989H57.4889C59.75 130.989 60.4946 129.473 60.4946 128.454H60.7152V133.743H60.4946C60.4946 132.752 59.75 131.236 57.4889 131.236H56.7169C53.6009 131.236 53.3252 133.606 53.3252 133.881V140.796C53.3252 143.055 54.1248 144.019 55.1175 144.019H59.9155C62.5627 144.019 64.7135 141.869 64.7135 139.225ZM79.294 120.41H79.3492C83.7059 120.41 85.8292 123.44 85.8292 126.663C85.8292 130.602 82.9614 133.495 76.895 133.495C75.7093 133.495 74.4408 133.385 73.0345 133.164V140.796C73.0345 143.055 73.8343 144.019 74.827 144.019V144.267H68.8157V144.019C69.8359 144.019 70.6356 143.055 70.6356 140.796V123.881C70.6356 121.622 69.8359 120.657 68.8157 120.657V120.41H74.827V120.657C73.8343 120.657 73.0345 121.622 73.0345 123.881V126.332C73.5584 124.156 75.1027 120.41 79.294 120.41ZM73.0345 127.6V132.916C74.11 133.082 75.0751 133.164 75.9851 133.164C81.2794 133.164 83.4302 130.272 83.4302 126.663C83.4302 123.192 81.3621 120.905 78.5219 120.905C74.7993 120.905 73.1448 125.589 73.0345 127.6ZM95.6667 120.41V120.629C94.674 120.629 93.8743 121.622 93.8743 123.881V140.796C93.8743 143.055 94.674 144.019 95.6667 144.019V144.267H89.6829V144.019C90.6756 144.019 91.4753 143.055 91.4753 140.796V123.881C91.4753 121.622 90.6756 120.629 89.6829 120.629V120.41H95.6667ZM99.5365 120.41H116.384V125.451H116.164C116.164 122.806 114.703 120.657 112.055 120.657H110.952C109.96 120.657 109.16 121.622 109.16 123.881V140.796C109.16 143.055 109.96 144.019 110.952 144.019V144.267H104.941V144.019C105.961 144.019 106.761 143.055 106.761 140.796V123.881C106.761 121.622 105.961 120.657 104.941 120.657H103.866C101.219 120.657 99.7572 122.806 99.7572 125.451H99.5365V120.41Z" fill="white"/>
</svg>
