<svg width="230" height="398" viewBox="0 0 230 398" fill="none" xmlns="http://www.w3.org/2000/svg">
<mask id="mask0_15_554" style="mask-type:luminance" maskUnits="userSpaceOnUse" x="0" y="0" width="230" height="398">
<path d="M229.224 0H0V397.234H229.224V0Z" fill="white"/>
</mask>
<g mask="url(#mask0_15_554)">
<mask id="mask1_15_554" style="mask-type:luminance" maskUnits="userSpaceOnUse" x="135" y="0" width="94" height="209">
<path d="M135.98 -7.62939e-06H228.316V208.189H135.98V-7.62939e-06Z" fill="white"/>
</mask>
<g mask="url(#mask1_15_554)">
<path d="M180.163 28.9591C179.861 30.9876 179.884 33.0928 179.842 35.1406C179.506 51.4009 179.628 49.4141 184.34 52.715C195.731 60.6961 207.123 68.6697 218.514 76.6506C219.282 77.1894 220.052 77.7358 220.804 78.3012C221.503 78.8322 221.962 79.5046 221.851 80.4368C221.771 81.1474 221.389 81.4646 219.87 82.1638C218.483 81.9268 217.478 80.9564 216.378 80.1847C178.612 53.7887 181.371 55.5193 180.48 55.2252C179.208 55.8594 179.888 67.959 180.152 68.5474C180.664 69.6935 179.258 68.3333 225.526 104.873C226.34 105.519 227.142 106.203 227.847 106.967C228.5 107.677 228.439 108.537 227.874 109.259C227.341 109.939 226.481 110.168 225.625 109.889C224.697 109.587 224.036 108.896 223.303 108.319C215.66 102.309 208.025 96.2807 200.39 90.2595C179.456 73.7434 181.107 74.9162 180.331 74.7748C179.651 76.5933 179.494 82.3242 179.915 90.1333C183.828 94.2825 188.031 98.336 192.503 102.111C193.698 103.119 194.955 104.067 196.113 105.121C196.804 105.748 197.412 106.485 197.96 107.245C198.625 108.174 198.632 109.202 198.036 110.191C197.435 111.188 195.991 111.475 195.387 110.55C193.439 107.57 190.339 105.886 187.844 103.532C185.337 101.171 182.922 98.7105 180.526 96.3532C179.861 96.4525 179.796 96.8498 179.796 97.2739C179.838 132.587 178.554 125.603 185.062 129.951C195.586 136.973 206.111 143.995 216.63 151.025C217.406 151.545 218.189 152.087 218.869 152.721C219.53 153.34 219.568 154.311 219.117 155.025C218.594 155.862 217.624 156.213 216.672 155.755C215.74 155.3 214.858 154.727 213.99 154.15C203.633 147.25 193.29 140.339 182.934 133.439C182.089 132.878 181.309 132.163 180.209 131.892C179.536 132.644 179.781 133.519 179.781 134.302C179.75 143.082 179.75 151.866 179.747 160.645C179.701 209.888 179.659 259.126 179.617 308.37C179.613 309.203 179.643 310.043 179.578 310.876C179.475 312.19 178.78 312.978 177.756 313.055C176.644 313.135 175.791 312.255 175.65 310.807C175.581 310.085 175.612 309.348 175.612 308.618C175.635 268.473 175.658 228.325 175.688 188.18C175.7 171.243 175.715 154.307 175.723 137.371C175.723 136.48 175.646 135.59 175.608 134.73C174.783 134.658 174.504 135.17 174.141 135.51C170.793 138.666 167.453 141.829 164.113 144.992C160.089 148.809 156.081 152.633 152.049 156.435C151.445 157.004 150.8 157.554 150.093 157.978C149.374 158.41 148.339 158.131 147.804 157.516C147.257 156.89 147.135 155.892 147.628 155.185C147.98 154.677 148.442 154.238 148.893 153.806C156.188 146.91 163.498 140.033 170.778 133.126C172.444 131.544 174.018 129.871 175.627 128.247C175.627 117.485 175.627 106.841 175.627 96.189C174.806 96.147 174.599 96.8269 174.263 97.2892C171.615 100.923 168.818 104.441 165.913 107.876C165.508 108.354 165.118 108.846 164.694 109.309C164.117 109.935 163.471 110.524 162.539 110.355C161.5 110.168 160.915 109.488 160.735 108.189C161.843 105.874 163.907 104.052 165.569 101.939C167.186 99.8833 168.89 97.9005 170.522 95.8565C172.211 93.7323 173.694 91.4476 175.578 89.6711C175.906 85.1973 175.818 78.133 175.421 75.8712C174.79 75.8712 174.576 76.4138 174.251 76.796C145.572 110.485 146.726 106.673 140.757 114.986C140.329 115.578 139.905 116.182 139.401 116.705C138.724 117.408 137.864 117.546 137.115 117.179C136.271 116.766 135.87 115.819 136.068 114.787C136.214 114.042 136.592 113.431 137.073 112.866C147.899 100.032 162.092 85.6556 175.654 68.7766C175.654 64.593 175.654 60.5281 175.654 56.4782C174.863 56.1344 148.518 84.1465 147.964 84.7349C147.181 85.5716 146.505 86.5078 145.771 87.3941C145.373 87.8715 145.01 88.395 144.536 88.7962C143.791 89.4228 142.668 89.3348 141.953 88.6817C141.216 88.0054 140.975 86.9317 141.575 86.1294C142.637 84.7082 143.742 83.306 144.949 82.0072C180.717 43.4579 175.742 57.5557 175.742 29.5129C174.955 29.1844 174.737 29.7346 174.446 30.1051C171.366 34.0669 168.294 38.0404 165.21 41.9946C164.824 42.4837 164.404 42.9612 163.934 43.3586C163.154 44.0158 162.314 44.0616 161.629 43.584C160.793 42.9994 160.518 42.071 161.052 41.1121C161.614 40.115 162.256 39.1483 162.963 38.2467C164.702 36.027 166.49 33.8416 168.279 31.6562C170.862 28.5005 173.311 25.2417 175.658 21.7878C175.658 17.2682 175.658 12.6836 175.658 8.10656C174.924 8.01105 174.672 8.50009 174.381 8.92033C171.401 13.2223 168.072 17.2567 164.667 21.2262C161.022 25.4823 158.267 22.594 161.549 18.6169C182.88 -7.24434 171.833 -2.43429 187.672 10.5899C191.047 13.3636 194.42 16.145 197.788 18.934C198.43 19.465 199.018 20.0725 199.546 20.7143C199.866 21.1039 200.1 21.6045 200.229 22.0934C200.401 22.7276 200.222 23.339 199.675 23.7746C199.152 24.1909 198.533 24.3897 197.933 24.0458C197.213 23.6294 196.518 23.1556 195.884 22.6245C191.792 19.2052 187.726 15.7553 183.644 12.3206C182.616 11.4572 181.577 10.609 180.683 9.87165C180.045 9.93279 179.93 10.2346 179.93 10.5326C179.918 14.6053 179.922 18.678 179.922 22.7238C183.545 27.1556 187.32 31.3239 191.914 34.6974C192.575 35.1826 193.175 35.8054 193.668 36.4626C194.138 37.0852 194.142 37.8533 193.641 38.5064C193.144 39.1559 192.438 39.4044 191.693 39.0948C190.928 38.7816 190.194 38.3575 189.506 37.8991C186.873 36.1454 184.718 33.8607 182.559 31.5837C181.848 30.831 181.16 30.0516 180.163 28.9591Z" fill="white"/>
</g>
<mask id="mask2_15_554" style="mask-type:luminance" maskUnits="userSpaceOnUse" x="0" y="0" width="76" height="209">
<path d="M0 0.552032H75.3269V208.191H0V0.552032Z" fill="white"/>
</mask>
<g mask="url(#mask2_15_554)">
<path d="M37.6371 18.3526C37.171 24.1523 37.5187 20.5419 47.5041 29.459C48.0924 29.9861 49.709 30.6929 49.5904 31.7208C49.3382 33.9672 46.7856 32.8286 45.7537 32.0111C45.0506 31.4494 37.5951 27.0672 37.8513 26.395C37.7405 26.6891 37.7787 61.2801 37.7787 61.5973C56.9465 72.5698 74.1847 89.8615 74.6777 90.4537C76.2177 92.2839 73.8676 94.4883 72.0676 93.4261C72.0676 93.4261 55.4447 77.3112 39.2232 66.8277C38.8753 66.6021 38.52 66.3577 38.0346 66.4952C37.5989 67.244 37.8131 68.0883 37.8169 68.8868C37.8933 80.5968 38.0117 92.303 38.0576 104.009C38.0652 105.491 38.5086 106.886 38.6117 108.265C41.5236 112.322 45.3106 115.482 48.6618 119.054C52.6935 123.352 67.1764 141.309 68.04 142.879C69.2094 145.007 66.0987 147.46 64.3485 144.999C57.9555 136.002 46.9843 122.871 39.4409 115.218C39.2346 115.005 38.9632 114.856 38.7645 114.71C38.5926 114.741 38.4742 114.729 38.4167 114.783C38.3441 114.848 38.2906 114.966 38.2906 115.062C38.2868 122.902 38.2868 130.737 38.2868 138.463C39.4753 140.935 40.1211 141.232 50.798 153.844C51.5393 154.719 52.231 155.643 52.873 156.595C53.1558 157.007 53.3353 157.531 53.4157 158.028C53.5227 158.685 53.2513 159.25 52.6782 159.64C52.1011 160.037 51.4515 160.091 50.9241 159.686C50.1827 159.116 49.4719 158.478 48.8719 157.768C39.3072 146.444 39.8077 146.486 38.7187 145.909C38.134 146.543 38.2906 141.5 38.6843 208.244C38.7569 220.684 38.8448 233.125 38.9059 245.563C39.009 265.53 39.0931 285.497 39.1771 305.461C39.181 306.504 39.1695 307.553 39.0434 308.588C38.9326 309.512 38.2066 310.15 37.4003 310.242C36.5137 310.337 35.4897 309.661 35.3061 308.706C35.1533 307.896 35.1457 307.047 35.138 306.214C34.8209 240.388 34.9012 266.519 34.5342 205.238C34.1789 144.992 34.4349 147.831 34.0261 146.088C32.9254 145.699 26.3297 154.146 25.1872 155.162C23.5976 156.572 20.1162 154.562 23.4216 150.982C33.514 140.033 34.2018 140.006 34.1331 136.812C34.0376 132.319 34.0834 127.822 34.0681 123.329C34.0567 121.029 34.0376 118.73 34.007 116.43C33.9994 115.918 33.9304 115.41 33.8884 114.909C33.1317 114.863 32.8987 115.379 32.5931 115.765C30.3423 118.592 6.27906 147.143 2.90096 143.857C-0.0835238 140.95 7.40254 140.121 33.0324 109.167C33.2962 108.846 33.5369 108.506 33.8081 108.147C33.8081 94.6717 33.8081 81.1966 33.8081 67.7713C33.2198 67.5536 32.9178 67.8018 32.6618 68.1456C26.1463 76.952 17.8846 83.8289 9.90553 91.451C6.72616 94.4845 7.1083 96.2915 4.69318 95.707C-3.36607 93.751 15.5268 83.9666 30.9459 64.0386C33.7814 60.3785 33.7967 60.3709 33.7585 55.7939C33.5522 30.8037 33.6668 31.9767 33.2427 31.3921C31.7906 31.1056 26.5821 42.8958 23.5364 38.9835C22.9861 38.2805 23.0587 37.3636 23.8077 36.4085C35.5546 21.4931 33.5254 24.8629 33.3764 10.8453C29.3639 12.7212 5.69821 45.0315 3.12644 45.6045C1.7622 45.6503 1.14314 44.7296 0.68457 43.5835C1.46413 40.9129 20.0551 19.5331 22.6115 16.6907C37.8551 -0.261017 32.1803 -3.81411 43.5794 7.44883C50.6719 14.4557 72.5492 38.4564 72.6982 38.6588C73.4319 39.6368 73.3479 40.7143 72.5836 41.509C70.8258 43.3274 70.6577 42.9531 44.9704 14.3602C34.2324 2.40572 38.4052 8.86625 37.6371 18.3526Z" fill="white"/>
</g>
<mask id="mask3_15_554" style="mask-type:luminance" maskUnits="userSpaceOnUse" x="62" y="78" width="71" height="131">
<path d="M62.6094 78.797H132.067V208.191H62.6094V78.797Z" fill="white"/>
</mask>
<g mask="url(#mask3_15_554)">
<path d="M95.1023 144.129C95.1941 137.133 95.2896 130.241 95.3775 123.402C94.4375 123.12 94.0897 123.738 93.6539 124.144C90.918 126.73 88.1971 129.332 85.4611 131.914C84.9299 132.411 84.3796 132.908 83.7758 133.301C82.9962 133.809 82.1479 133.649 81.4944 132.992C80.8982 132.388 80.7034 131.402 81.1888 130.692C81.6587 130.008 82.2243 129.378 82.8319 128.808C84.8879 126.875 86.9973 124.999 89.0607 123.074C91.1243 121.148 93.1573 119.192 95.0946 117.35C95.5189 114.787 95.8551 97.9958 95.6602 90.5801C95.3508 90.3164 95.0755 90.4806 94.9189 90.7215C89.2328 99.6501 82.3771 107.7 75.9115 116.04C75.0173 117.198 74.165 118.386 73.2441 119.521C72.3919 120.571 71.3832 120.758 70.5196 120.117C69.6367 119.459 69.3272 118.363 69.9234 117.328C70.4928 116.338 71.2149 115.429 71.918 114.523C76.0987 109.163 80.3137 103.833 84.4789 98.4656C87.9411 94.0032 91.2007 89.3995 94.1852 84.601C95.5609 82.3927 96.1762 77.0555 99.3555 80.3449C99.5656 80.5588 99.6881 80.8722 99.8065 81.1548C100.865 83.6801 102.42 85.9075 104.06 88.0776C106.639 91.497 109.257 94.8934 111.813 98.3319C114.564 102.042 117.767 105.339 121.026 108.586C124.217 111.761 127.332 115.001 129.881 118.734C130.588 119.765 131.394 120.743 131.612 122.019C131.57 122.569 131.421 123.089 131.012 123.441C130.137 124.208 129.239 124.277 128.478 123.57C127.951 123.081 127.523 122.47 127.114 121.87C125.219 119.1 123.182 116.434 120.74 114.137C113.613 107.448 107.602 99.8258 101.954 91.8904C101.423 91.1492 101.002 90.2897 99.8753 89.6554C99.8256 94.6336 99.7798 99.3978 99.7225 104.162C99.6651 108.957 99.4816 113.752 99.9899 118.902C100.483 119.926 101.709 120.755 102.864 121.641C105.439 123.609 108.057 125.523 110.613 127.509C111.767 128.407 112.849 129.401 113.904 130.413C114.423 130.91 114.87 131.517 115.241 132.136C115.719 132.934 115.524 133.817 114.855 134.402C114.232 134.948 113.514 135.04 112.833 134.604C112.134 134.161 111.473 133.637 110.862 133.08C107.613 130.115 104.121 127.452 100.651 124.758C100.406 124.571 100.162 124.373 99.7836 124.541C99.6957 124.655 99.4778 124.801 99.4701 124.953C99.2294 133.095 99.1568 141.236 99.2027 149.095C109.719 160.16 119.15 171.751 128.635 183.297C129.357 184.176 130.202 184.993 130.458 186.327C130.339 186.605 130.266 187.06 130.003 187.343C128.975 188.443 128.042 188.523 127.03 187.602C126.491 187.117 126.013 186.552 125.57 185.971C121.588 180.718 117.178 175.824 112.887 170.827C109.272 166.628 105.829 162.284 102.275 158.032C101.434 157.023 100.678 155.877 99.3708 155.231C99.0422 157.416 98.7173 171.801 98.9085 175.121C102.267 179.981 106.284 184.378 110.216 188.848C110.908 189.631 111.611 190.411 112.233 191.244C112.6 191.736 112.902 192.309 113.086 192.897C113.326 193.661 113.044 194.341 112.386 194.815C111.825 195.224 111.198 195.212 110.606 194.907C109.753 194.467 109.115 193.768 108.508 193.046C105.753 189.765 103.001 186.479 100.242 183.198C99.8562 182.739 99.5962 182.12 98.9047 181.941C98.4117 182.773 98.6294 183.614 98.6218 184.405C98.3544 207.82 98.125 231.232 97.8461 254.644C97.6359 272.409 97.3683 290.18 97.12 307.944C97.1085 308.781 97.1085 309.625 96.9786 310.442C96.8144 311.491 95.9813 312.262 95.1366 312.312C94.2043 312.366 93.207 311.495 93.035 310.347C92.9243 309.629 92.9434 308.892 92.951 308.158C93.0236 302.412 93.1076 296.663 93.1879 290.917C93.3025 282.764 93.4324 274.611 93.5317 266.458C93.8146 242.941 94.0782 219.426 94.3647 195.911C94.4146 191.626 94.5254 187.343 94.6056 183.056C94.6171 182.227 94.6056 181.398 94.6056 180.611C93.8604 180.344 93.5393 180.806 93.2108 181.192C90.444 184.462 87.1921 187.305 84.6699 190.793C84.4865 191.045 84.2535 191.263 84.0281 191.477C83.4548 192.004 82.7823 192.233 82.0103 192.088C78.938 191.496 81.3378 188.126 83.4128 185.822C85.2279 183.801 87.1425 181.868 89.0263 179.908C90.6964 178.173 92.309 176.393 93.7382 174.452C94.3724 173.593 94.7661 172.695 94.7699 171.572C94.7775 164.989 94.8425 158.402 94.8769 151.819C94.8807 151.621 94.7813 151.422 94.7279 151.223C94.4031 151.032 94.1699 151.181 93.9865 151.437C89.1793 158.173 83.6268 164.297 78.2119 170.529C75.7396 173.371 73.3205 176.252 70.8825 179.121C70.0036 180.156 69.0942 181.161 68.4942 182.407C67.9782 183.469 67.1261 184.248 66.0562 184.76C65.2382 185.154 64.3823 185.016 63.7596 184.363C63.2131 183.793 63.0526 183.117 63.2704 182.342C63.5378 181.394 64.2371 180.737 64.8371 180.026C69.1591 174.922 73.504 169.829 77.845 164.74C81.4409 160.523 85.056 156.328 88.6213 152.083C89.8326 150.646 90.9371 149.118 92.0375 147.594C92.9472 146.329 93.6885 144.935 95.1023 144.129Z" fill="white"/>
</g>
<mask id="mask4_15_554" style="mask-type:luminance" maskUnits="userSpaceOnUse" x="0" y="360" width="229" height="37">
<path d="M228.182 360.169H0V396.113H228.182V360.169Z" fill="white"/>
</mask>
<g mask="url(#mask4_15_554)">
<mask id="mask5_15_554" style="mask-type:luminance" maskUnits="userSpaceOnUse" x="135" y="360" width="94" height="37">
<path d="M135.9 360.173H228.182V396.117H135.9V360.173Z" fill="white"/>
</mask>
<g mask="url(#mask5_15_554)">
<path d="M180.057 237.414C179.755 238.549 179.778 239.723 179.736 240.867C179.4 249.95 179.522 248.84 184.231 250.685C195.616 255.143 207 259.596 218.385 264.056C219.153 264.356 219.921 264.661 220.674 264.978C221.373 265.274 221.829 265.65 221.719 266.17C221.638 266.567 221.258 266.745 219.741 267.134C218.355 267.002 217.35 266.46 216.25 266.03C178.506 251.285 181.263 252.251 180.373 252.087C179.102 252.442 179.782 259.201 180.045 259.53C180.557 260.169 179.151 259.409 225.394 279.821C226.208 280.182 227.01 280.562 227.711 280.99C228.364 281.387 228.303 281.868 227.738 282.271C227.208 282.651 226.349 282.779 225.493 282.623C224.565 282.454 223.904 282.069 223.17 281.746C215.533 278.389 207.902 275.022 200.271 271.657C179.35 262.43 181 263.087 180.225 263.007C179.545 264.023 179.388 267.224 179.808 271.588C183.719 273.904 187.92 276.169 192.389 278.278C193.583 278.841 194.84 279.37 195.998 279.958C196.689 280.31 197.297 280.72 197.843 281.146C198.506 281.664 198.513 282.239 197.919 282.791C197.32 283.348 195.875 283.509 195.272 282.991C193.323 281.328 190.227 280.386 187.733 279.072C185.228 277.753 182.814 276.378 180.419 275.062C179.755 275.117 179.69 275.339 179.69 275.575C179.732 295.302 178.449 291.4 184.953 293.829C195.471 297.752 205.988 301.674 216.502 305.601C217.277 305.891 218.061 306.195 218.741 306.548C219.401 306.894 219.44 307.436 218.989 307.834C218.465 308.303 217.495 308.5 216.544 308.244C215.614 307.99 214.731 307.669 213.864 307.347C203.514 303.493 193.174 299.633 182.825 295.777C181.981 295.462 181.202 295.065 180.102 294.914C179.43 295.334 179.675 295.823 179.675 296.26C179.644 301.165 179.644 306.071 179.64 310.975C179.595 338.482 179.552 365.988 179.51 393.495C179.507 393.961 179.537 394.429 179.472 394.895C179.369 395.628 178.674 396.069 177.651 396.111C176.539 396.155 175.687 395.664 175.546 394.856C175.477 394.453 175.508 394.041 175.508 393.634C175.531 371.208 175.554 348.781 175.584 326.356C175.596 316.895 175.611 307.434 175.619 297.973C175.619 297.477 175.542 296.978 175.504 296.499C174.679 296.459 174.4 296.745 174.038 296.934C170.692 298.697 167.354 300.464 164.016 302.232C159.995 304.362 155.988 306.501 151.959 308.624C151.356 308.941 150.71 309.249 150.004 309.485C149.286 309.726 148.251 309.571 147.716 309.228C147.17 308.876 147.048 308.321 147.54 307.925C147.892 307.641 148.354 307.396 148.805 307.156C156.095 303.304 163.401 299.461 170.677 295.603C172.342 294.719 173.915 293.785 175.523 292.878C175.523 286.866 175.523 280.919 175.523 274.97C174.702 274.945 174.496 275.325 174.16 275.585C171.513 277.613 168.717 279.58 165.815 281.498C165.41 281.765 165.021 282.04 164.597 282.298C164.02 282.649 163.374 282.978 162.443 282.882C161.404 282.779 160.82 282.399 160.64 281.673C161.748 280.38 163.81 279.363 165.471 278.182C167.087 277.033 168.79 275.925 170.421 274.785C172.109 273.597 173.591 272.321 175.474 271.328C175.802 268.83 175.714 264.883 175.317 263.62C174.687 263.62 174.473 263.924 174.148 264.136C145.486 282.955 146.639 280.825 140.674 285.47C140.246 285.8 139.822 286.138 139.318 286.431C138.642 286.822 137.783 286.9 137.034 286.694C136.19 286.465 135.789 285.934 135.988 285.359C136.133 284.943 136.511 284.601 136.992 284.286C147.812 277.117 161.996 269.086 175.55 259.657C175.55 257.32 175.55 255.049 175.55 252.788C174.759 252.595 148.43 268.242 147.876 268.572C147.094 269.038 146.418 269.562 145.684 270.056C145.287 270.324 144.924 270.616 144.451 270.839C143.706 271.191 142.583 271.141 141.869 270.776C141.132 270.398 140.891 269.798 141.491 269.35C142.553 268.557 143.656 267.774 144.863 267.048C180.61 245.514 175.638 253.39 175.638 237.724C174.851 237.54 174.633 237.848 174.343 238.054C171.265 240.267 168.194 242.489 165.112 244.696C164.727 244.969 164.306 245.237 163.837 245.458C163.058 245.825 162.217 245.852 161.534 245.584C160.697 245.256 160.422 244.738 160.957 244.204C161.519 243.646 162.16 243.107 162.867 242.603C164.604 241.364 166.392 240.141 168.179 238.921C170.761 237.158 173.209 235.338 175.554 233.409C175.554 230.885 175.554 228.324 175.554 225.767C174.821 225.713 174.568 225.986 174.278 226.221C171.299 228.624 167.973 230.877 164.57 233.094C160.927 235.472 158.173 233.86 161.454 231.637C182.772 217.192 171.731 219.879 187.561 227.153C190.933 228.704 194.305 230.256 197.671 231.815C198.313 232.111 198.899 232.451 199.427 232.81C199.747 233.026 199.981 233.306 200.11 233.579C200.282 233.935 200.103 234.275 199.556 234.519C199.033 234.752 198.416 234.863 197.816 234.67C197.098 234.437 196.403 234.173 195.769 233.875C191.679 231.966 187.615 230.039 183.536 228.121C182.508 227.638 181.47 227.164 180.576 226.752C179.938 226.786 179.824 226.954 179.824 227.122C179.812 229.397 179.816 231.672 179.816 233.933C183.436 236.408 187.21 238.736 191.801 240.621C192.462 240.892 193.06 241.24 193.553 241.606C194.023 241.954 194.026 242.382 193.526 242.748C193.029 243.111 192.324 243.247 191.579 243.077C190.815 242.901 190.082 242.664 189.394 242.408C186.763 241.429 184.609 240.153 182.451 238.881C181.741 238.459 181.053 238.025 180.057 237.414Z" fill="white"/>
</g>
<mask id="mask6_15_554" style="mask-type:luminance" maskUnits="userSpaceOnUse" x="-1" y="360" width="77" height="35">
<path d="M-0.00012207 360.173H75.2826V394.992H-0.00012207V360.173Z" fill="white"/>
</mask>
<g mask="url(#mask6_15_554)">
<path d="M37.6154 231.488C37.1495 234.727 37.497 232.711 47.4764 237.693C48.0646 237.987 49.68 238.383 49.5618 238.956C49.3096 240.21 46.7586 239.574 45.7273 239.118C45.0245 238.805 37.5734 236.356 37.8294 235.98C37.7186 236.144 37.7568 255.467 37.7568 255.643C56.9136 261.774 74.1416 271.433 74.6343 271.764C76.1735 272.787 73.8247 274.017 72.0259 273.425C72.0259 273.425 55.4127 264.422 39.2005 258.567C38.8528 258.441 38.4977 258.304 38.0127 258.382C37.5772 258.8 37.7912 259.272 37.795 259.717C37.8714 266.258 37.9898 272.797 38.0357 279.336C38.0433 280.165 38.4863 280.944 38.5894 281.714C41.4996 283.98 45.2843 285.743 48.6336 287.741C52.6628 290.141 67.1373 300.172 68.0005 301.05C69.1692 302.238 66.0603 303.607 64.3112 302.234C57.9218 297.208 46.957 289.872 39.4181 285.598C39.212 285.478 38.9407 285.396 38.7421 285.314C38.5703 285.331 38.4519 285.325 38.3946 285.356C38.322 285.392 38.2685 285.457 38.2685 285.51C38.2647 289.889 38.2647 294.267 38.2647 298.583C39.4525 299.963 40.0979 300.13 50.7687 307.175C51.5094 307.664 52.2007 308.179 52.8424 308.71C53.1251 308.941 53.3044 309.233 53.3847 309.51C53.4916 309.879 53.2204 310.194 52.6475 310.412C52.0708 310.633 51.4216 310.664 50.8945 310.437C50.1538 310.12 49.4434 309.763 48.8438 309.365C39.2844 303.04 39.7848 303.065 38.6962 302.742C38.1119 303.095 38.2685 300.279 38.6618 337.563C38.7344 344.511 38.8223 351.461 38.8834 358.408C38.9866 369.562 39.0706 380.715 39.1547 391.868C39.1585 392.448 39.147 393.036 39.0209 393.615C38.9102 394.131 38.1845 394.488 37.3787 394.538C36.4926 394.591 35.4691 394.215 35.2857 393.68C35.1331 393.228 35.1255 392.754 35.1178 392.29C34.8008 355.517 34.881 370.115 34.5144 335.883C34.1591 302.23 34.4151 303.815 34.0065 302.841C32.9064 302.624 26.3147 307.343 25.1728 307.91C23.5839 308.699 20.1047 307.576 23.4083 305.574C33.4946 299.459 34.182 299.444 34.1133 297.66C34.0178 295.151 34.0636 292.639 34.0483 290.128C34.0369 288.845 34.0178 287.559 33.9874 286.274C33.9797 285.988 33.911 285.705 33.869 285.424C33.1127 285.399 32.8797 285.688 32.5742 285.904C30.3248 287.483 6.27565 303.432 2.89955 301.596C-0.0831965 299.971 7.39849 299.509 33.0134 282.218C33.277 282.038 33.5175 281.849 33.7887 281.647C33.7887 274.12 33.7887 266.594 33.7887 259.094C33.2006 258.972 32.8988 259.111 32.643 259.302C26.1313 264.222 17.8744 268.064 9.90002 272.321C6.72251 274.015 7.10441 275.026 4.69073 274.699C-3.36383 273.607 15.518 268.141 30.9282 257.009C33.762 254.963 33.7773 254.959 33.7391 252.402C33.5328 238.444 33.6474 239.099 33.2235 238.772C31.7721 238.612 26.5667 245.199 23.5229 243.014C22.973 242.62 23.0454 242.109 23.794 241.574C35.5341 233.243 33.506 235.125 33.3572 227.294C29.3471 228.343 5.69515 246.392 3.12488 246.711C1.76145 246.738 1.14274 246.222 0.684448 245.582C1.46355 244.091 20.0437 232.147 22.5986 230.56C37.8332 221.091 32.1618 219.105 43.5542 225.398C50.6426 229.311 72.5071 242.718 72.6561 242.832C73.3894 243.379 73.3053 243.98 72.5415 244.423C70.7846 245.439 70.6165 245.231 44.9445 229.258C34.2126 222.581 38.3831 226.189 37.6154 231.488Z" fill="white"/>
</g>
<mask id="mask7_15_554" style="mask-type:luminance" maskUnits="userSpaceOnUse" x="62" y="360" width="70" height="37">
<path d="M62.572 360.173H131.989V396.085H62.572V360.173Z" fill="white"/>
</mask>
<g mask="url(#mask7_15_554)">
<path d="M95.0461 301.747C95.1377 297.84 95.2333 293.99 95.3211 290.17C94.3817 290.012 94.034 290.357 93.5987 290.585C90.8643 292.028 88.1449 293.482 85.4105 294.924C84.8796 295.202 84.3297 295.479 83.7262 295.699C82.9471 295.983 82.0993 295.894 81.4462 295.527C80.8504 295.189 80.6556 294.639 81.1406 294.242C81.6105 293.86 82.1757 293.507 82.783 293.189C84.8376 292.11 86.9457 291.062 89.0081 289.987C91.0704 288.91 93.1022 287.817 95.0384 286.79C95.4625 285.357 95.7985 275.977 95.6036 271.834C95.2944 271.687 95.0193 271.779 94.8629 271.915C89.18 276.901 82.3283 281.399 75.8663 286.056C74.9728 286.704 74.121 287.367 73.2007 288.001C72.3491 288.589 71.3407 288.692 70.4777 288.335C69.5954 287.966 69.2861 287.355 69.8819 286.776C70.4509 286.223 71.1728 285.716 71.8754 285.21C76.0535 282.216 80.2661 279.239 84.429 276.24C87.8891 273.748 91.1468 271.175 94.1295 268.494C95.5045 267.259 96.1194 264.279 99.2968 266.118C99.5069 266.237 99.629 266.412 99.7474 266.569C100.805 267.98 102.36 269.226 103.998 270.436C106.576 272.348 109.192 274.244 111.747 276.166C114.497 278.238 117.697 280.079 120.955 281.893C124.144 283.667 127.257 285.476 129.804 287.561C130.511 288.138 131.316 288.684 131.534 289.397C131.492 289.704 131.343 289.994 130.934 290.191C130.06 290.621 129.163 290.659 128.402 290.264C127.875 289.991 127.448 289.649 127.039 289.315C125.145 287.766 123.109 286.276 120.669 284.995C113.546 281.257 107.539 277 101.894 272.568C101.363 272.153 100.943 271.672 99.8162 271.319C99.7665 274.099 99.7207 276.762 99.6634 279.422C99.6063 282.099 99.4229 284.779 99.9308 287.655C100.423 288.228 101.649 288.69 102.803 289.187C105.377 290.285 107.993 291.354 110.548 292.464C111.701 292.966 112.782 293.52 113.836 294.085C114.356 294.364 114.802 294.702 115.173 295.048C115.65 295.495 115.456 295.987 114.787 296.314C114.165 296.619 113.447 296.671 112.767 296.427C112.068 296.18 111.407 295.886 110.796 295.575C107.55 293.919 104.059 292.429 100.592 290.926C100.347 290.823 100.103 290.712 99.7245 290.806C99.6366 290.869 99.4191 290.951 99.4114 291.035C99.1707 295.584 99.0982 300.132 99.144 304.522C109.654 310.702 119.08 317.178 128.559 323.626C129.281 324.118 130.125 324.575 130.381 325.32C130.262 325.474 130.19 325.728 129.926 325.887C128.899 326.5 127.967 326.546 126.955 326.032C126.416 325.761 125.939 325.446 125.496 325.121C121.517 322.186 117.109 319.451 112.82 316.661C109.207 314.315 105.766 311.888 102.215 309.514C101.374 308.951 100.618 308.309 99.3121 307.95C98.9837 309.17 98.659 317.205 98.85 319.059C102.207 321.775 106.221 324.231 110.151 326.727C110.842 327.164 111.545 327.6 112.167 328.066C112.534 328.341 112.836 328.662 113.019 328.988C113.26 329.416 112.977 329.796 112.32 330.062C111.759 330.287 111.132 330.283 110.54 330.113C109.689 329.867 109.051 329.477 108.444 329.072C105.69 327.241 102.94 325.406 100.183 323.572C99.7971 323.314 99.5375 322.969 98.8462 322.869C98.3536 323.335 98.5711 323.803 98.5635 324.246C98.2963 337.326 98.067 350.405 97.7883 363.483C97.5782 373.406 97.3108 383.333 97.0627 393.256C97.0512 393.724 97.0512 394.196 96.9213 394.652C96.757 395.237 95.9246 395.668 95.0804 395.695C94.1486 395.725 93.1519 395.237 92.98 394.599C92.8692 394.198 92.8883 393.785 92.8959 393.376C92.9685 390.166 93.0526 386.954 93.1328 383.744C93.2472 379.191 93.3771 374.636 93.4764 370.081C93.7592 356.946 94.0226 343.81 94.3091 330.675C94.3588 328.28 94.4694 325.887 94.5496 323.492C94.5611 323.03 94.5496 322.566 94.5496 322.126C93.805 321.977 93.4841 322.235 93.1557 322.451C90.3905 324.277 87.1405 325.866 84.6198 327.814C84.4366 327.955 84.2036 328.077 83.9782 328.196C83.4053 328.49 82.7333 328.618 81.9618 328.538C78.8911 328.207 81.2896 326.324 83.3635 325.037C85.1774 323.908 87.0909 322.829 88.9737 321.733C90.6427 320.765 92.2543 319.77 93.6827 318.687C94.3167 318.206 94.7101 317.705 94.7139 317.077C94.7215 313.401 94.7865 309.721 94.8208 306.044C94.8247 305.933 94.7253 305.821 94.6719 305.708C94.3473 305.603 94.1143 305.687 93.9309 305.83C89.1266 309.593 83.5772 313.013 78.1657 316.495C75.6946 318.08 73.2771 319.691 70.8404 321.294C69.9621 321.872 69.0531 322.434 68.4534 323.129C67.9379 323.723 67.0863 324.158 66.0168 324.445C65.1996 324.665 64.344 324.588 63.7215 324.221C63.1754 323.904 63.0151 323.526 63.2327 323.093C63.5001 322.564 64.1991 322.197 64.7987 321.8C69.118 318.947 73.4605 316.103 77.7989 313.261C81.3927 310.905 85.0057 308.561 88.569 306.191C89.7795 305.389 90.8834 304.535 91.9832 303.684C92.8921 302.977 93.6331 302.198 95.0461 301.747Z" fill="white"/>
</g>
</g>
<path d="M29.7692 303.428C30.2781 303.428 30.9283 303.2 31.7199 302.748C32.0026 302.748 32.144 302.862 32.144 303.088C32.144 303.258 32.0591 303.399 31.8895 303.512C31.7764 303.624 31.2676 303.823 30.3629 304.106C29.4582 304.388 28.7232 304.53 28.1578 304.53C26.2921 304.53 25.3591 303.936 25.3591 302.748C25.3591 302.297 25.4722 301.816 25.6984 301.308C25.9811 300.798 26.1224 300.46 26.1224 300.29C26.1224 300.12 26.0659 300.036 25.9528 300.036C24.822 300.431 23.1823 301.42 21.0337 303.004L15.0123 310.549C14.5599 311.115 14.1359 311.397 13.7401 311.397C13.2878 311.397 13.0616 311.256 13.0616 310.973C13.0616 310.691 13.2595 310.238 13.6553 309.617L18.9983 302.918C19.3942 302.41 20.1292 301.449 21.2033 300.036C22.2776 298.623 22.8996 297.775 23.0692 297.492C23.2954 297.209 23.6911 297.068 24.2566 297.068C24.8785 297.068 25.1895 297.181 25.1895 297.406C25.1895 297.633 25.133 297.801 25.0199 297.916L23.8325 299.612C23.6629 299.837 23.465 300.063 23.2388 300.29C23.7477 300.177 25.7832 299.159 29.3451 297.236C29.4582 297.181 29.6561 297.152 29.9388 297.152C30.2215 297.152 30.3629 297.236 30.3629 297.406C30.3629 297.519 30.3063 297.66 30.1933 297.83C30.1367 297.943 29.854 298.311 29.3451 298.932C28.3274 300.177 27.8185 301.109 27.8185 301.732C27.8185 302.862 28.4687 303.428 29.7692 303.428ZM34.445 306.563V307.157C40.7775 304.726 43.9438 302.297 43.9438 299.866C43.9438 298.623 43.1522 298 41.5691 298C40.0424 298 38.4594 298.961 36.8197 300.884C35.2366 302.805 34.445 304.7 34.445 306.563ZM46.0641 299.188C46.0641 302.58 42.2758 305.519 34.6994 308.005C35.1517 309.306 36.3957 309.955 38.4312 309.955C41.88 309.955 45.1595 308.542 48.2691 305.716C48.4387 305.49 48.6083 305.378 48.7779 305.378C49.0041 305.378 49.1172 305.574 49.1172 305.971C49.1172 306.309 48.6083 306.903 47.5906 307.751C46.573 308.599 45.1312 309.419 43.2653 310.209C41.3994 311.002 39.562 311.397 37.7527 311.397C33.9078 311.397 31.9856 309.984 31.9856 307.157C31.9856 304.841 33.1447 302.494 35.4627 300.12C37.8375 297.746 40.3817 296.558 43.0957 296.558C45.0746 296.558 46.0641 297.435 46.0641 299.188ZM61.4592 289.267C64.6253 285.367 67.8482 281.465 71.1274 277.565C74.4069 273.608 76.1312 271.517 76.3008 271.29C76.527 271.065 76.9228 270.952 77.4882 270.952C78.1102 270.952 78.4211 271.122 78.4211 271.46V271.714C78.4211 272.054 78.2798 272.308 77.9971 272.478C75.5094 274.852 70.3358 280.9 62.4767 290.623C54.6178 300.345 50.6881 305.914 50.6881 307.327C50.6881 308.683 51.3666 309.361 52.7236 309.361C53.176 309.361 53.911 309.22 54.9288 308.937C56.7379 308.204 58.0667 307.44 58.9148 306.649C59.7629 305.801 60.2718 305.378 60.4414 305.378C60.6676 305.378 60.7807 305.547 60.7807 305.886C60.7807 306.225 60.2718 306.846 59.254 307.751C58.2363 308.599 56.9641 309.361 55.4376 310.041C53.911 310.719 52.5257 311.057 51.2818 311.057C49.4159 311.057 48.4832 310.183 48.4832 308.429C48.4832 307.356 49.8683 304.868 52.6388 300.968C55.4094 297.011 58.3494 293.111 61.4592 289.267ZM66.0568 309.955C68.2618 309.955 70.7213 308.825 73.4351 306.563C76.1492 304.247 77.7323 302.268 78.1846 300.628C78.1846 299.95 77.7606 299.385 76.9125 298.932C76.0643 298.424 75.1031 298.17 74.0288 298.17C71.4281 298.17 69.0251 299.301 66.8199 301.562C64.6715 303.766 63.5972 305.716 63.5972 307.411C63.5972 309.107 64.4171 309.955 66.0568 309.955ZM74.7921 296.812C76.7711 296.812 78.4108 297.519 79.7113 298.932C79.7676 298.932 80.22 298.508 81.0681 297.66C81.4639 297.039 81.9162 296.728 82.4251 296.728C82.934 296.728 83.1884 296.982 83.1884 297.492L82.8492 298.254C82.6795 298.537 81.5487 299.921 79.4568 302.41C77.4213 304.896 76.234 306.367 75.8947 306.818C75.612 307.27 75.4706 307.948 75.4706 308.853C75.4706 309.476 75.8664 309.785 76.658 309.785C78.2977 309.785 80.6158 308.429 83.6125 305.716C83.7821 305.49 83.9517 305.378 84.1214 305.378C84.3475 305.378 84.4606 305.519 84.4606 305.801C84.4606 306.479 83.3015 307.553 80.9833 309.023C78.7218 310.492 76.6863 311.227 74.877 311.227C73.633 311.227 73.0113 310.578 73.0113 309.277C73.0113 308.825 72.9265 308.599 72.7568 308.599C72.6437 308.599 72.5589 308.628 72.5024 308.683C69.6753 310.549 66.9896 311.481 64.4454 311.481C61.9575 311.481 60.7136 310.351 60.7136 308.089C60.7136 305.716 62.1272 303.258 64.9543 300.714C67.7812 298.113 71.0606 296.812 74.7921 296.812ZM91.3064 304.784C98.2043 299.866 102.077 297.406 102.925 297.406C103.378 297.406 103.604 297.519 103.604 297.746C103.604 297.859 103.123 298.199 102.162 298.764C101.201 299.272 97.554 301.732 91.2215 306.14C91.2215 308.628 92.3524 309.871 94.6139 309.871C96.2536 309.871 98.6001 308.487 101.653 305.716C101.823 305.49 101.992 305.378 102.162 305.378C102.388 305.378 102.501 305.519 102.501 305.801C102.501 306.479 101.342 307.553 99.0241 309.023C96.7625 310.492 94.727 311.227 92.9178 311.227C90.2603 311.227 88.9316 310.068 88.9316 307.751L82.1468 312.499C81.5814 312.499 81.2987 312.386 81.2987 312.161C81.2987 311.934 81.4683 311.708 81.8075 311.481L89.0164 306.395C89.5253 303.624 90.7127 300.743 92.5786 297.746C93.2571 296.671 93.6809 296.079 93.8506 295.964C94.0202 295.682 94.2746 295.54 94.6139 295.54C95.0097 295.54 95.2076 295.71 95.2076 296.05C95.2076 296.388 95.1227 296.644 94.9531 296.812C92.9178 298.848 91.7022 301.505 91.3064 304.784ZM109.378 325.896C107.794 326.519 106.522 327.309 105.561 328.27C104.543 329.288 104.035 330.023 104.035 330.476C104.035 330.984 104.204 331.238 104.543 331.238C105.731 331.238 106.805 330.701 107.766 329.628C108.671 328.553 109.208 327.309 109.378 325.896ZM101.575 318.859C96.9388 318.859 92.472 320.188 88.175 322.844C83.878 325.558 81.7294 328.497 81.7294 331.662C81.7294 333.47 82.7472 334.376 84.7827 334.376C88.91 334.376 95.5818 329.317 104.798 319.199C103.95 318.971 102.875 318.859 101.575 318.859ZM132.87 298.508C132.87 299.979 131.654 301.928 129.223 304.36C126.848 306.791 125.661 308.317 125.661 308.937C125.661 309.503 126.057 309.785 126.848 309.785C128.488 309.785 130.806 308.429 133.803 305.716C133.973 305.49 134.142 305.378 134.312 305.378C134.538 305.378 134.651 305.519 134.651 305.801C134.651 306.479 133.492 307.553 131.174 309.023C128.912 310.492 126.877 311.227 125.067 311.227C123.824 311.227 123.202 310.578 123.202 309.277C123.202 308.259 124.445 306.535 126.933 304.106C129.478 301.674 130.75 300.036 130.75 299.188C130.75 298.34 130.241 297.916 129.223 297.916C127.47 297.859 125.746 298.311 124.05 299.272L123.286 299.696C122.834 300.204 120.714 302.776 116.926 307.411C113.194 312.046 109.971 315.891 107.257 318.945C109.632 320.073 110.819 321.91 110.819 324.454V324.624C112.402 324.229 113.957 324.03 115.484 324.03C117.011 324.03 118.339 324.342 119.47 324.964C120.601 325.642 121.166 326.461 121.166 327.422C121.166 327.592 121.081 327.819 120.912 328.102C120.799 328.385 120.572 328.526 120.233 328.526C119.894 328.526 119.611 328.299 119.385 327.846C119.215 327.395 118.961 326.971 118.622 326.574C117.717 325.501 116.473 324.964 114.89 324.964C113.307 324.964 111.95 325.134 110.819 325.472C110.537 327.395 109.66 329.063 108.19 330.476C106.664 331.944 104.883 332.68 102.847 332.68C101.999 332.68 101.575 332.342 101.575 331.662C101.575 330.758 102.338 329.599 103.865 328.186C105.335 326.83 107.172 325.755 109.378 324.964C109.378 322.59 108.388 320.894 106.409 319.877C96.7974 330.335 89.4472 335.563 84.3586 335.563C81.0792 335.563 79.4395 334.488 79.4395 332.342C79.4395 328.723 81.9838 325.388 87.0724 322.334C92.1044 319.34 96.9105 317.841 101.49 317.841C103.073 317.841 104.459 318.011 105.646 318.351C110.339 313.093 115.654 306.676 121.59 299.102C127.583 291.528 130.891 287.345 131.513 286.553C132.135 285.762 132.7 285.367 133.209 285.367C133.718 285.367 133.973 285.621 133.973 286.129C133.973 286.412 133.831 286.751 133.548 287.147C127.838 293.986 124.983 297.492 124.983 297.66C125.209 297.435 125.972 297.152 127.272 296.812C128.573 296.474 129.562 296.304 130.241 296.304C131.994 296.304 132.87 297.039 132.87 298.508ZM140.093 309.955C142.298 309.955 144.758 308.825 147.472 306.563C150.186 304.247 151.769 302.268 152.221 300.628C152.221 299.95 151.797 299.385 150.949 298.932C150.101 298.424 149.14 298.17 148.066 298.17C145.465 298.17 143.062 299.301 140.857 301.562C138.708 303.766 137.634 305.716 137.634 307.411C137.634 309.107 138.454 309.955 140.093 309.955ZM148.829 296.812C150.808 296.812 152.448 297.519 153.748 298.932C153.804 298.932 154.257 298.508 155.105 297.66C155.501 297.039 155.953 296.728 156.462 296.728C156.971 296.728 157.225 296.982 157.225 297.492L156.886 298.254C156.716 298.537 155.585 299.921 153.493 302.41C151.458 304.896 150.271 306.367 149.931 306.818C149.649 307.27 149.507 307.948 149.507 308.853C149.507 309.476 149.903 309.785 150.695 309.785C152.334 309.785 154.652 308.429 157.649 305.716C157.819 305.49 157.988 305.378 158.158 305.378C158.384 305.378 158.497 305.519 158.497 305.801C158.497 306.479 157.338 307.553 155.02 309.023C152.758 310.492 150.723 311.227 148.914 311.227C147.67 311.227 147.048 310.578 147.048 309.277C147.048 308.825 146.963 308.599 146.793 308.599C146.68 308.599 146.595 308.628 146.539 308.683C143.712 310.549 141.026 311.481 138.482 311.481C135.994 311.481 134.75 310.351 134.75 308.089C134.75 305.716 136.164 303.258 138.991 300.714C141.818 298.113 145.097 296.812 148.829 296.812ZM172.128 303.428C172.637 303.428 173.287 303.2 174.078 302.748C174.361 302.748 174.502 302.862 174.502 303.088C174.502 303.258 174.418 303.399 174.248 303.512C174.135 303.624 173.626 303.823 172.722 304.106C171.817 304.388 171.082 304.53 170.516 304.53C168.651 304.53 167.718 303.936 167.718 302.748C167.718 302.297 167.831 301.816 168.057 301.308C168.34 300.798 168.481 300.46 168.481 300.29C168.481 300.12 168.424 300.036 168.311 300.036C167.181 300.431 165.541 301.42 163.392 303.004L157.371 310.549C156.919 311.115 156.494 311.397 156.099 311.397C155.646 311.397 155.42 311.256 155.42 310.973C155.42 310.691 155.618 310.238 156.014 309.617L161.357 302.918C161.753 302.41 162.488 301.449 163.562 300.036C164.636 298.623 165.258 297.775 165.428 297.492C165.654 297.209 166.05 297.068 166.615 297.068C167.237 297.068 167.548 297.181 167.548 297.406C167.548 297.633 167.492 297.801 167.378 297.916L166.191 299.612C166.022 299.837 165.824 300.063 165.598 300.29C166.106 300.177 168.142 299.159 171.704 297.236C171.817 297.181 172.015 297.152 172.298 297.152C172.58 297.152 172.722 297.236 172.722 297.406C172.722 297.519 172.665 297.66 172.552 297.83C172.495 297.943 172.213 298.311 171.704 298.932C170.686 300.177 170.177 301.109 170.177 301.732C170.177 302.862 170.827 303.428 172.128 303.428ZM188.05 309.955C191.499 309.955 194.779 308.542 197.889 305.716C198.057 305.49 198.227 305.378 198.397 305.378C198.622 305.378 198.737 305.574 198.737 305.971C198.737 306.309 198.227 306.903 197.209 307.751C196.192 308.599 194.75 309.419 192.884 310.209C191.018 311.002 189.52 311.397 188.389 311.397C187.315 311.397 186.523 311.313 186.014 311.143C185.505 311.03 184.94 310.691 184.318 310.125C183.753 309.503 183.47 308.599 183.47 307.411C183.47 306.168 183.922 305.124 184.827 304.276C185.732 303.428 186.749 302.889 187.88 302.664C190.764 302.156 192.206 301.166 192.206 299.696C192.206 298.678 191.556 298.17 190.255 298.17C188.558 298.17 185.732 299.159 181.774 301.138C178.89 304.812 176.911 307.356 175.837 308.769C174.763 310.183 173.915 310.889 173.293 310.889C172.671 310.832 172.36 310.607 172.36 310.209C172.36 309.814 172.529 309.447 172.869 309.107C176.883 304.02 181.83 297.971 187.71 290.963C193.591 283.896 197.86 278.696 200.517 275.362C201.025 274.852 201.281 274.485 201.281 274.258C201.281 274.032 201.224 273.92 201.111 273.92C200.998 273.92 200.771 274.032 200.433 274.258C200.15 274.428 199.274 274.739 197.803 275.192C196.334 275.644 194.834 275.87 193.308 275.87C191.782 275.87 191.018 275.53 191.018 274.852C191.018 274.682 191.075 274.54 191.188 274.428C191.358 274.258 191.47 274.174 191.528 274.174C191.64 274.174 191.98 274.315 192.546 274.598C193.167 274.823 193.845 274.938 194.58 274.938C195.373 274.938 196.842 274.54 198.991 273.75C201.195 272.959 203.373 271.687 205.522 269.934C206.087 269.481 206.511 269.256 206.794 269.256C207.359 269.256 207.642 269.481 207.642 269.934L207.218 270.782C206.991 271.007 203.598 274.993 197.041 282.737C190.537 290.426 185.873 296.022 183.046 299.526C187.004 297.492 190 296.474 192.036 296.474C194.127 296.474 195.174 297.406 195.174 299.272C195.174 300.345 194.666 301.193 193.648 301.816C192.687 302.438 191.612 302.862 190.424 303.088C189.294 303.258 188.219 303.71 187.201 304.444C186.24 305.124 185.76 306.084 185.76 307.327C185.76 309.079 186.523 309.955 188.05 309.955Z" fill="white"/>
<path d="M55.3357 344.188C55.3357 344.726 55.8144 345.122 56.7716 345.372C57.0411 345.437 57.2176 345.485 57.3013 345.511C57.3849 345.53 57.5477 345.582 57.7893 345.666C58.0401 345.741 58.2121 345.805 58.3051 345.861C58.4073 345.916 58.5467 346.004 58.7232 346.124C58.8997 346.237 59.0252 346.354 59.0997 346.474C59.174 346.585 59.2438 346.734 59.3087 346.919C59.3738 347.097 59.4063 347.287 59.4063 347.492C59.4063 348.086 59.1693 348.569 58.6953 348.941C58.24 349.312 57.6359 349.499 56.8831 349.499C56.2325 349.499 55.6704 349.354 55.1962 349.065C54.7223 348.769 54.3878 348.378 54.1926 347.895L54.9733 347.435C55.1034 347.797 55.3357 348.086 55.6704 348.3C56.0142 348.504 56.4184 348.607 56.8831 348.607C57.3571 348.607 57.7427 348.514 58.0401 348.328C58.3376 348.141 58.4862 347.862 58.4862 347.492C58.4862 346.951 58.0077 346.558 57.0505 346.306C56.7809 346.241 56.6043 346.199 56.5206 346.182C56.4371 346.153 56.2698 346.101 56.0188 346.027C55.7771 345.945 55.6052 345.874 55.503 345.819C55.41 345.763 55.2753 345.679 55.0988 345.569C54.9221 345.446 54.7966 345.332 54.7223 345.219C54.648 345.099 54.5783 344.95 54.5133 344.774C54.4482 344.587 54.4157 344.392 54.4157 344.188C54.4157 343.621 54.6387 343.147 55.0849 342.767C55.5494 342.385 56.121 342.194 56.7995 342.194C57.3571 342.194 57.8497 342.32 58.2772 342.572C58.7139 342.822 59.0346 343.17 59.239 343.617L58.4722 344.062C58.2121 343.413 57.6545 343.088 56.7995 343.088C56.3813 343.088 56.0327 343.185 55.754 343.38C55.4751 343.575 55.3357 343.844 55.3357 344.188ZM66.1845 340.216C66.1845 340.401 66.1193 340.559 65.9892 340.689C65.8592 340.819 65.7012 340.884 65.5153 340.884C65.3295 340.884 65.1715 340.819 65.0412 340.689C64.9111 340.559 64.8462 340.401 64.8462 340.216C64.8462 340.03 64.9111 339.872 65.0412 339.742C65.1715 339.612 65.3295 339.547 65.5153 339.547C65.7012 339.547 65.8592 339.612 65.9892 339.742C66.1193 339.872 66.1845 340.03 66.1845 340.216ZM65.9753 349.331H65.0552V342.362H65.9753V349.331ZM75.3719 342.194C76.2082 342.194 76.8728 342.456 77.3652 342.975C77.8579 343.487 78.1041 344.178 78.1041 345.053V349.331H77.1841V345.053C77.1841 344.43 77.0168 343.947 76.6823 343.604C76.357 343.26 75.8923 343.088 75.2883 343.088C74.5912 343.088 74.0382 343.306 73.6293 343.743C73.2296 344.178 73.0298 344.824 73.0298 345.679V349.331H72.1099V342.362H73.0298V343.449C73.5504 342.612 74.3309 342.194 75.3719 342.194ZM87.3133 349.499C86.2633 349.499 85.3896 349.15 84.6925 348.452C83.9955 347.738 83.6471 346.869 83.6471 345.848C83.6471 344.814 83.9955 343.951 84.6925 343.254C85.3896 342.547 86.2633 342.194 87.3133 342.194C88.0012 342.194 88.6191 342.362 89.1674 342.696C89.7158 343.021 90.1154 343.464 90.3664 344.022L89.6136 344.453C89.4277 344.035 89.1257 343.705 88.7074 343.464C88.2984 343.212 87.8339 343.088 87.3133 343.088C86.542 343.088 85.8914 343.357 85.3617 343.896C84.832 344.425 84.5672 345.076 84.5672 345.848C84.5672 346.608 84.832 347.263 85.3617 347.813C85.8914 348.342 86.542 348.607 87.3133 348.607C87.8245 348.607 88.2845 348.485 88.6934 348.244C89.1118 348.002 89.4369 347.668 89.6694 347.24L90.4361 347.687C90.1479 348.244 89.7251 348.685 89.1674 349.01C88.6098 349.335 87.9918 349.499 87.3133 349.499ZM99.0912 342.194C100.132 342.194 100.964 342.563 101.587 343.296C102.228 344.022 102.548 344.881 102.548 345.874C102.548 345.92 102.539 346.065 102.521 346.306H96.4007C96.4937 347.003 96.7911 347.561 97.293 347.979C97.7948 348.397 98.4221 348.607 99.1749 348.607C100.234 348.607 100.983 348.212 101.419 347.421L102.228 347.895C101.921 348.397 101.498 348.792 100.959 349.081C100.43 349.36 99.8301 349.499 99.1609 349.499C98.0643 349.499 97.172 349.155 96.4844 348.468C95.7967 347.778 95.4529 346.906 95.4529 345.848C95.4529 344.797 95.7921 343.928 96.4704 343.241C97.1489 342.544 98.0225 342.194 99.0912 342.194ZM99.0912 343.088C98.3663 343.088 97.7577 343.3 97.2651 343.728C96.7818 344.155 96.4937 344.717 96.4007 345.414H101.6C101.498 344.671 101.215 344.1 100.75 343.701C100.267 343.292 99.7139 343.088 99.0912 343.088ZM121.646 349.331H115.443V348.452L118.956 344.914C119.96 343.909 120.462 343.05 120.462 342.334C120.462 341.73 120.271 341.253 119.89 340.899C119.518 340.536 119.054 340.355 118.496 340.355C117.501 340.355 116.772 340.815 116.307 341.736L115.485 341.247C115.782 340.653 116.196 340.196 116.726 339.881C117.255 339.566 117.846 339.408 118.496 339.408C119.277 339.408 119.96 339.673 120.545 340.202C121.14 340.712 121.437 341.424 121.437 342.334C121.437 342.874 121.289 343.403 120.991 343.922C120.694 344.434 120.239 344.996 119.625 345.609L116.837 348.384H121.646V349.331ZM133.365 348.132C132.724 349.043 131.818 349.499 130.647 349.499C129.485 349.499 128.574 349.043 127.914 348.132C127.273 347.213 126.953 345.987 126.953 344.453C126.953 342.91 127.273 341.688 127.914 340.787C128.574 339.868 129.485 339.408 130.647 339.408C131.818 339.408 132.724 339.868 133.365 340.787C134.016 341.688 134.341 342.91 134.341 344.453C134.341 345.995 134.016 347.223 133.365 348.132ZM128.639 347.477C129.132 348.193 129.801 348.55 130.647 348.55C131.502 348.55 132.166 348.193 132.64 347.477C133.123 346.772 133.365 345.763 133.365 344.453C133.365 343.143 133.123 342.135 132.64 341.428C132.166 340.712 131.502 340.355 130.647 340.355C129.801 340.355 129.132 340.712 128.639 341.428C128.165 342.144 127.928 343.153 127.928 344.453C127.928 345.754 128.165 346.762 128.639 347.477ZM145.843 349.331H139.64V348.452L143.153 344.914C144.157 343.909 144.658 343.05 144.658 342.334C144.658 341.73 144.468 341.253 144.087 340.899C143.715 340.536 143.251 340.355 142.693 340.355C141.699 340.355 140.969 340.815 140.504 341.736L139.682 341.247C139.979 340.653 140.393 340.196 140.922 339.881C141.452 339.566 142.042 339.408 142.693 339.408C143.473 339.408 144.157 339.673 144.742 340.202C145.337 340.712 145.634 341.424 145.634 342.334C145.634 342.874 145.485 343.403 145.188 343.922C144.891 344.434 144.435 344.996 143.822 345.609L141.034 348.384H145.843V349.331ZM156.799 346.461H158.053V347.379H156.799V349.331H155.823V347.379H150.665V346.461L154.289 339.574H155.363L151.738 346.461H155.823V343.477H156.799V346.461Z" fill="white"/>
<path d="M16.6159 228.535C16.6159 238.741 40.1628 240.407 40.1628 253.441C40.1628 261.019 32.1285 264.556 26.166 264.556C20.9613 264.556 16.8685 262.686 14.4431 261.019C14.2409 260.868 14.0388 260.816 13.8872 260.816C13.3819 260.816 12.9272 261.322 12.9272 262.535H12.4724V249.501H12.9272C12.9272 256.17 14.342 259.149 17.0201 261.322C19.1422 263.039 21.972 264.101 26.166 264.101C28.7431 264.101 35.7161 263.141 35.7161 254.856C35.7161 244.146 12.4724 241.518 12.4724 230.506C12.4724 222.877 20.4056 220.807 25.7112 220.807C29.6525 220.807 33.6949 222.474 36.373 224.292C36.5751 224.443 36.8278 224.544 37.0803 224.544C37.5351 224.544 37.8889 224.141 37.8889 222.928H38.3437V235.81H37.8889V235.607C37.8889 228.99 36.3225 225.655 33.4424 223.534C31.5222 222.069 28.8441 221.261 25.7112 221.261C23.1342 221.261 16.6159 222.422 16.6159 228.535ZM82.9312 220.807V221.21C81.1121 221.21 79.5961 223.03 79.5961 227.172V258.19C79.5961 262.333 81.1121 264.101 82.9312 264.101V264.556H71.9156V264.101C73.7347 264.101 75.2506 262.333 75.2506 258.19V239.396C56.2512 239.65 54.988 248.54 54.988 249.753V258.19C54.988 262.333 56.4535 264.101 58.2726 264.101V264.556H47.2571V264.101C49.1266 264.101 50.5919 262.333 50.5919 258.19V227.172C50.5919 223.03 49.1266 221.21 47.2571 221.21V220.807H58.2726V221.21C56.4535 221.21 54.988 223.03 54.988 227.172V247.883C56.1502 244.096 61.0011 239.144 75.2506 238.993V227.172C75.2506 223.03 73.7347 221.21 71.9156 221.21V220.807H82.9312ZM118.586 255.311H119.041V264.556H89.9863V264.101C91.856 264.101 93.3213 262.333 93.3213 258.19V227.172C93.3213 223.03 91.856 221.21 89.9863 221.21V220.807H118.687V230.052H118.283C118.283 225.201 114.342 221.21 109.44 221.21H101.002C99.1827 221.21 97.7174 223.03 97.7174 227.172V243.741C98.4248 242.074 100.193 240.206 103.933 240.206H105.347C109.491 240.206 110.855 237.427 110.855 235.558H111.259V245.257H110.855C110.855 243.439 109.491 240.661 105.347 240.661H103.933C98.2227 240.661 97.7174 245.005 97.7174 245.51V258.19C97.7174 262.333 99.1827 264.101 101.002 264.101H109.794C114.645 264.101 118.586 260.159 118.586 255.311ZM145.305 220.807H145.406C153.389 220.807 157.28 226.364 157.28 232.275C157.28 239.498 152.025 244.803 140.908 244.803C138.736 244.803 136.411 244.6 133.834 244.196V258.19C133.834 262.333 135.3 264.101 137.119 264.101V264.556H126.103V264.101C127.973 264.101 129.438 262.333 129.438 258.19V227.172C129.438 223.03 127.973 221.261 126.103 221.261V220.807H137.119V221.261C135.3 221.261 133.834 223.03 133.834 227.172V231.667C134.794 227.676 137.624 220.807 145.305 220.807ZM133.834 233.992V243.741C135.805 244.045 137.573 244.196 139.241 244.196C148.943 244.196 152.884 238.892 152.884 232.275C152.884 225.909 149.094 221.716 143.89 221.716C137.068 221.716 134.036 230.304 133.834 233.992ZM175.307 220.807V221.21C173.488 221.21 172.023 223.03 172.023 227.172V258.19C172.023 262.333 173.488 264.101 175.307 264.101V264.556H164.342V264.101C166.161 264.101 167.627 262.333 167.627 258.19V227.172C167.627 223.03 166.161 221.21 164.342 221.21V220.807H175.307ZM182.399 220.807H213.272V230.052H212.869C212.869 225.201 210.191 221.261 205.339 221.261H203.318C201.499 221.261 200.034 223.03 200.034 227.172V258.19C200.034 262.333 201.499 264.101 203.318 264.101V264.556H192.302V264.101C194.172 264.101 195.637 262.333 195.637 258.19V227.172C195.637 223.03 194.172 221.261 192.302 221.261H190.332C185.481 221.261 182.803 225.201 182.803 230.052H182.399V220.807Z" fill="white"/>
</g>
</svg>
